<?xml version="1.0" encoding="UTF-8"?><svg id="Layer_1" xmlns="http://www.w3.org/2000/svg" xmlns:xlink="http://www.w3.org/1999/xlink" viewBox="0 0 486.08 486.08"><defs><style>.cls-1{fill:#795833;}.cls-1,.cls-2,.cls-3,.cls-4,.cls-5{stroke-width:0px;}.cls-6{clip-path:url(#clippath);}.cls-2,.cls-7{fill:none;}.cls-3{fill:#03989e;}.cls-4{fill:#ffb1a5;}.cls-5{fill:#303030;}.cls-7{stroke:#d9d9d9;stroke-linecap:round;stroke-miterlimit:20;stroke-width:6.08px;}</style><clipPath id="clippath"><rect class="cls-2" x="3.27" y="72.54" width="480" height="275.98"/></clipPath></defs><polygon class="cls-1" points="3.27 348.52 60.88 283.62 60.88 348.52 3.27 348.52"/><polygon class="cls-1" points="425.2 283.62 425.2 348.52 483.27 348.52 425.2 283.62"/><g class="cls-6"><path class="cls-3" d="M473.3,202.64l-220.47-127.48c-3.03-1.75-6.41-2.62-9.79-2.62s-6.76.87-9.78,2.62L12.78,202.64c-6.06,3.49-9.78,9.97-9.78,16.96v254.94c0,7.01,3.72,13.47,9.78,16.98l220.47,127.46c3.03,1.75,6.41,2.63,9.78,2.63s6.76-.88,9.78-2.63l220.47-127.46c6.05-3.5,9.78-9.97,9.78-16.98v-254.94c.02-6.99-3.71-13.47-9.76-16.96ZM463.52,311.28l-79.29-137.52,79.27,45.83v91.68h.02ZM80.07,252.85l48.25-27.89-48.25,83.69v-55.8ZM80.07,385.52l48.25,83.7-48.25-27.9v-55.8h0ZM324.53,488.43h-162.97l-81.49-141.34,81.49-141.34h162.97l81.49,141.34-81.49,141.34ZM291.29,507.65l-48.25,27.9-48.25-27.9h96.51-.01ZM194.78,186.52l48.25-27.9,48.25,27.9h-96.51.01ZM406.01,308.66l-48.25-83.7,48.25,27.9v55.8ZM406.01,385.51v55.8l-48.25,27.9,48.25-83.7h0ZM334.12,189.1l-54.88-31.73h73.17l36.58,63.46-54.88-31.73h.01ZM151.96,189.1l-54.88,31.73,36.58-63.46h73.17l-54.88,31.73h.01ZM60.88,347.09v63.45l-36.58-63.45,36.58-63.46v63.46ZM206.83,536.81h-73.17l-36.58-63.46,109.75,63.46ZM334.12,505.08l54.88-31.73-36.58,63.46h-73.17l54.88-31.73h-.01ZM425.2,283.64l36.58,63.46-36.58,63.45v-126.92h0ZM243.04,92.14l79.28,45.83h-158.56l79.27-45.83h0ZM101.85,173.77L22.57,311.29v-91.67l79.28-45.85ZM22.57,382.88l79.28,137.52-79.28-45.83v-91.68h0ZM243.04,602.02l-79.27-45.83h158.56l-79.28,45.83h-.01ZM384.23,520.38l79.27-137.52v91.67l-79.27,45.85h0Z"/></g><polygon class="cls-4" points="128.32 224.95 80.07 308.64 80.07 252.84 128.32 224.95"/><polygon class="cls-4" points="194.78 186.52 243.04 158.62 291.29 186.52 194.78 186.52"/><polygon class="cls-4" points="357.76 224.96 406.02 308.66 406.02 252.86 357.76 224.96"/><polygon class="cls-1" points="206.83 157.36 97.08 220.82 133.67 157.36 206.83 157.36"/><polygon class="cls-1" points="279.24 157.36 389 220.82 352.42 157.36 279.24 157.36"/><polygon class="cls-5" points="22.57 311.29 22.57 219.62 101.85 173.77 22.57 311.29"/><polygon class="cls-5" points="163.76 137.97 243.04 92.14 322.32 137.97 163.76 137.97"/><polygon class="cls-5" points="384.23 173.77 463.52 311.29 463.51 219.6 384.23 173.77"/><path class="cls-7" d="M3.04,358.4h480"/><path class="cls-5" d="M53.48,378.6c1.73-.51,2.94-2.12,2.94-4.11,0-2.48-1.85-4.47-4.35-4.47h-6.2v14.58h3.2v-5.64h1.29l3.59,5.64h3.6l-4.09-6h.02ZM51.59,376.32h-2.51v-3.46h2.51c1.02,0,1.77.73,1.77,1.73s-.75,1.73-1.77,1.73h0Z"/><path class="cls-5" d="M76.5,372.83v-2.82h-8.77v14.58h8.77v-2.82h-5.56v-3.06h4.76v-2.82h-4.76v-3.06h5.56Z"/><path class="cls-5" d="M100.37,370.02l-4.65,10.09-4.59-10.09h-3.47v14.58h3.2v-8.7l3.94,8.7h1.84l3.96-8.68v8.68h3.21v-14.58h-3.45.01Z"/><path class="cls-5" d="M124.34,384.6h3.42l-5.25-14.58h-3.59l-5.25,14.58h3.43l.9-2.75h5.44s.9,2.75.9,2.75ZM118.85,379.18l1.87-5.78,1.87,5.78h-3.74Z"/><path class="cls-5" d="M146.61,370.02h-10.54v2.84h3.69v11.74h3.19v-11.74h3.66v-2.84h0Z"/><path class="cls-5" d="M164.26,378.6c1.73-.51,2.94-2.12,2.94-4.11,0-2.48-1.85-4.47-4.35-4.47h-6.2v14.58h3.2v-5.64h1.29l3.59,5.64h3.6l-4.09-6h.02ZM162.37,376.32h-2.51v-3.46h2.51c1.02,0,1.77.73,1.77,1.73s-.75,1.73-1.77,1.73h0Z"/><path class="cls-5" d="M178.51,384.6h3.21v-14.58h-3.21v14.58Z"/><path class="cls-5" d="M202.33,384.6h3.42l-5.25-14.58h-3.59l-5.25,14.58h3.43l.9-2.75h5.44l.9,2.75h0ZM196.84,379.18l1.87-5.78,1.87,5.78h-3.74,0Z"/><path class="cls-5" d="M224.59,370.02h-10.54v2.84h3.69v11.74h3.19v-11.74h3.66v-2.84h0Z"/><path class="cls-5" d="M234.76,384.6h3.21v-14.58h-3.21v14.58Z"/><path class="cls-5" d="M256.61,384.79c4.15,0,7.49-3.35,7.49-7.49s-3.34-7.49-7.49-7.49-7.49,3.35-7.49,7.49,3.35,7.49,7.49,7.49ZM256.61,381.65c-2.46,0-4.33-1.89-4.33-4.35s1.87-4.35,4.33-4.35,4.35,1.89,4.35,4.35-1.87,4.35-4.35,4.35Z"/><path class="cls-5" d="M285.66,370.02v9.65l-7.17-9.65h-3.3v14.58h3.2v-9.67l7.15,9.67h3.31v-14.58h-3.19Z"/><path class="cls-5" d="M306.67,370.02h-6.2v14.58h3.2v-5.91h2.99c2.46,0,4.35-1.82,4.35-4.28s-1.89-4.4-4.35-4.4h.01ZM306.16,376.06h-2.48v-3.21h2.48c1.02,0,1.8.66,1.8,1.61s-.78,1.6-1.8,1.6Z"/><path class="cls-5" d="M328.88,378.6c1.73-.51,2.94-2.12,2.94-4.11,0-2.48-1.85-4.47-4.35-4.47h-6.2v14.58h3.2v-5.64h1.29l3.59,5.64h3.6l-4.09-6h.02ZM326.99,376.32h-2.51v-3.46h2.51c1.02,0,1.77.73,1.77,1.73s-.75,1.73-1.77,1.73h0Z"/><path class="cls-5" d="M349.96,384.79c4.15,0,7.49-3.35,7.49-7.49s-3.34-7.49-7.49-7.49-7.49,3.35-7.49,7.49,3.35,7.49,7.49,7.49ZM349.96,381.65c-2.46,0-4.33-1.89-4.33-4.35s1.87-4.35,4.33-4.35,4.35,1.89,4.35,4.35-1.87,4.35-4.35,4.35Z"/><path class="cls-5" d="M376.94,370.02h-7.99v2.84h4.78v7.58c0,.88-.63,1.53-1.43,1.53-.73,0-1.29-.53-1.41-1.28l-3.16.92c.32,1.97,1.89,3.18,4.57,3.18,2.99,0,4.64-1.53,4.64-3.94v-10.84h0Z"/><path class="cls-5" d="M397.22,372.83v-2.82h-8.77v14.58h8.77v-2.82h-5.56v-3.06h4.76v-2.82h-4.76v-3.06h5.56Z"/><path class="cls-5" d="M415.33,384.79c2.89,0,5.39-1.63,6.63-4.01l-2.77-1.43c-.7,1.38-2.14,2.3-3.86,2.3-2.46,0-4.33-1.89-4.33-4.35s1.87-4.35,4.33-4.35c1.72,0,3.16.92,3.86,2.3l2.77-1.43c-1.24-2.38-3.74-4.01-6.63-4.01-4.13,0-7.49,3.35-7.49,7.49s3.35,7.49,7.49,7.49h0Z"/><path class="cls-5" d="M441.75,370.02h-10.54v2.84h3.69v11.74h3.19v-11.74h3.66v-2.84Z"/><path class="cls-5" d="M82.24,408.35h2l-3.06-8.51h-2.09l-3.06,8.51h2l.53-1.6h3.17l.53,1.6h-.02ZM79.04,405.19l1.09-3.37,1.09,3.37s-2.18,0-2.18,0Z"/><path class="cls-5" d="M98.73,407h-.85l-1.06.47c.96-.79,1.59-2.01,1.59-3.37,0-2.41-1.94-4.37-4.37-4.37s-4.37,1.96-4.37,4.37,1.96,4.37,4.37,4.37c.34,0,.68-.04.99-.11h3.7v-1.35h0ZM91.51,404.08c0-1.43,1.09-2.54,2.53-2.54s2.54,1.11,2.54,2.54-1.09,2.54-2.54,2.54-2.53-1.11-2.53-2.54Z"/><path class="cls-5" d="M113.63,407h-.85l-1.06.47c.96-.79,1.59-2.01,1.59-3.37,0-2.41-1.94-4.37-4.37-4.37s-4.37,1.96-4.37,4.37,1.96,4.37,4.37,4.37c.34,0,.68-.04.99-.11h3.7v-1.35h0ZM106.41,404.08c0-1.43,1.09-2.54,2.53-2.54s2.54,1.11,2.54,2.54-1.09,2.54-2.54,2.54-2.53-1.11-2.53-2.54Z"/><path class="cls-5" d="M124.99,408.35h2l-3.06-8.51h-2.09l-3.06,8.51h2l.53-1.6h3.17l.53,1.6h-.02ZM121.79,405.19l1.09-3.37,1.09,3.37s-2.18,0-2.18,0Z"/><path class="cls-5" d="M134.61,406.69v-6.85h-1.87v8.51h4.7v-1.66h-2.83Z"/><path class="cls-5" d="M146.87,408.46c2.01,0,3.54-1.23,3.54-2.84v-5.78h-1.87v5.43c0,.87-.73,1.53-1.68,1.53s-1.66-.66-1.66-1.53v-5.43h-1.87v5.78c0,1.6,1.55,2.84,3.53,2.84h0Z"/><path class="cls-5" d="M162.45,408.35h2.49l-4.09-4.72,3.67-3.78h-2.41l-2.78,3.01h-.32v-3.01h-1.87v8.51h1.87v-3.89h.27l3.18,3.89h0Z"/><path class="cls-5" d="M184.32,399.84h-6.15v1.66h2.15v6.85h1.86v-6.85h2.14v-1.66Z"/><path class="cls-5" d="M194.62,404.85c1.01-.3,1.72-1.23,1.72-2.4,0-1.44-1.08-2.61-2.54-2.61h-3.61v8.51h1.87v-3.29h.75l2.09,3.29h2.1l-2.39-3.5h0ZM193.52,403.51h-1.46v-2.01h1.46c.59,0,1.03.42,1.03,1.01s-.44,1.01-1.03,1.01h0Z"/><path class="cls-5" d="M206.34,408.46c2.01,0,3.54-1.23,3.54-2.84v-5.78h-1.87v5.43c0,.87-.73,1.53-1.68,1.53s-1.66-.66-1.66-1.53v-5.43h-1.87v5.78c0,1.6,1.55,2.84,3.53,2.84h0Z"/><path class="cls-5" d="M219.24,408.46c1.58,0,2.93-.94,2.93-2.53,0-3.15-3.91-2.37-3.91-3.84,0-.48.37-.71.82-.71.48,0,.96.27,1.39.74l1.25-1.2c-.63-.72-1.58-1.2-2.63-1.2-1.35,0-2.72.81-2.72,2.51,0,2.89,3.93,2.2,3.93,3.68,0,.47-.4.78-1.05.78-.78,0-1.39-.44-1.7-1.11l-1.54.97c.55,1.06,1.74,1.9,3.23,1.9h0Z"/><path class="cls-5" d="M233.67,399.84h-6.15v1.66h2.15v6.85h1.86v-6.85h2.14v-1.66Z"/><path class="cls-5" d="M248.47,410.05h1.12v-10.21h-1.12v10.21Z"/><path class="cls-5" d="M270.42,399.84l-2.03,6.08-2.03-6.08h-2.08l3.06,8.51h2.09l3.06-8.51h-2.08,0Z"/><path class="cls-5" d="M278.31,408.35h1.87v-8.51h-1.87v8.51Z"/><path class="cls-5" d="M291.44,404.85c1.01-.3,1.72-1.23,1.72-2.4,0-1.44-1.08-2.61-2.54-2.61h-3.61v8.51h1.87v-3.29h.75l2.09,3.29h2.1l-2.39-3.5h.01ZM290.34,403.51h-1.46v-2.01h1.46c.59,0,1.03.42,1.03,1.01s-.44,1.01-1.03,1.01h0Z"/><path class="cls-5" d="M303.74,403.69v1.46h2.34c-.39.89-1.27,1.49-2.32,1.49-1.43,0-2.54-1.11-2.54-2.54s1.11-2.54,2.54-2.54c1.01,0,1.83.54,2.25,1.35l1.62-.84c-.74-1.39-2.2-2.34-3.87-2.34-2.42,0-4.37,1.96-4.37,4.37s1.94,4.37,4.37,4.37,4.37-1.96,4.37-4.37v-.41h-4.39,0Z"/><path class="cls-5" d="M314.66,408.35h1.87v-8.51h-1.87v8.51Z"/><path class="cls-5" d="M329.47,399.84v5.63l-4.18-5.63h-1.93v8.51h1.87v-5.65l4.16,5.65h1.93v-8.51h-1.85Z"/><path class="cls-5" d="M338.17,408.35h1.87v-8.51h-1.87v8.51Z"/><path class="cls-5" d="M352.07,408.35h2l-3.06-8.51h-2.09l-3.06,8.51h2l.53-1.6h3.17l.53,1.6h-.02ZM348.87,405.19l1.09-3.37,1.09,3.37h-2.18Z"/><path class="cls-5" d="M373.55,399.84h-6.15v1.66h2.15v6.85h1.86v-6.85h2.14v-1.66Z"/><path class="cls-5" d="M384.6,401.49v-1.65h-5.12v8.51h5.12v-1.65h-3.25v-1.78h2.78v-1.65h-2.78v-1.78h3.25Z"/><path class="cls-5" d="M395.17,408.46c1.68,0,3.15-.95,3.87-2.34l-1.61-.84c-.41.81-1.25,1.35-2.25,1.35-1.43,0-2.53-1.11-2.53-2.54s1.09-2.54,2.53-2.54c1.01,0,1.84.54,2.25,1.35l1.61-.84c-.72-1.39-2.18-2.34-3.87-2.34-2.41,0-4.37,1.96-4.37,4.37s1.96,4.37,4.37,4.37Z"/><path class="cls-5" d="M410.66,399.84v3.42h-3.46v-3.42h-1.87v8.51h1.87v-3.43h3.46v3.43h1.86v-8.51h-1.86Z"/></svg>