<?xml version="1.0" encoding="utf-8"?>
<!-- Generator: Adobe Illustrator 28.3.0, SVG Export Plug-In . SVG Version: 6.00 Build 0)  -->
<svg version="1.1" id="svg2418" xmlns:svg="http://www.w3.org/2000/svg"
	 xmlns="http://www.w3.org/2000/svg" xmlns:xlink="http://www.w3.org/1999/xlink" x="0px" y="0px" viewBox="0 0 2878.1 1536.8"
	 style="enable-background:new 0 0 2878.1 1536.8;" xml:space="preserve">
<style type="text/css">
	.st0{fill:#FDA403;}
</style>
<path id="path2431" class="st0" d="M777.6,1536.2c-1.1-1.1-0.8-6.2,0.4-6.9c3.4-2.1,9.3,3.2,6.9,6.1
	C783.6,1536.8,778.8,1537.4,777.6,1536.2z M801.5,1535.1c-1.3-1.3-0.5-3.3,2.5-6.8c2.9-3.3,3.5-3.6,8.2-3.3l5.1,0.3v3.9
	c0,3.3-0.4,4-2.5,4.6C810.7,1534.9,802.1,1535.7,801.5,1535.1z M898.1,1533.6c0.2-1.3,1.1-2.4,2.3-2.5c1.1-0.2,3-0.5,4.3-0.8
	c3.1-0.7,13.2-10.9,13.2-13.3c0-1,2.1-4.4,4.6-7.5l4.6-5.6l7.6,0.3l7.6,0.3l0.5-6.5c0.5-6.2,0.6-6.6,4-8.2c1.9-1,4.7-1.7,6.1-1.8
	c1.4,0,3.4-0.9,4.5-2.1c1.6-1.8,2.6-2,6.6-1.5c5.4,0.7,12.8,5.1,12.8,7.6c0,0.9-0.9,2.5-2,3.5c-1.2,1.1-2,3.1-2,5.1
	c0,5.1-3.7,7.4-11.7,7.4c-7.5,0-13.6,3-18,8.6c-1.4,1.9-3.4,3.4-4.4,3.4c-1,0-4.1,2.5-6.8,5.6c-4.9,5.5-5.1,5.6-8.2,4.5
	c-4.6-1.6-7.3-1.4-10.1,0.8c-2.9,2.3-10.3,5-13.6,5C898.2,1535.8,897.8,1535.4,898.1,1533.6z M673.9,1532.3c-2.5-0.7-8.4-1.6-13.3-2
	c-8.4-0.6-8.9-0.8-11.3-4c-1.4-1.9-3.8-3.5-5.4-3.9c-3.2-0.6-12.4-9.2-11.5-10.7c1-1.6,5.5-1,8.2,1.1c2,1.6,4.1,2,9.4,2
	c6.2,0,7,0.2,8.4,2.4c0.9,1.3,3.3,3.5,5.3,4.7c3.2,2,6,2.9,17.2,5.5c3,0.7,5.1,3,4.3,5C684.5,1534.1,680,1534.1,673.9,1532.3z
	 M840.6,1530.2c-0.4-0.4-0.7-1.9-0.7-3.5c0-2.7,2.3-4.9,5-4.9c1.4,0,4.3,6.7,3.5,8C847.7,1530.9,841.6,1531.2,840.6,1530.2z
	 M864.9,1528.9c-0.8-1.5-2.3-2.1-5.7-2.3c-3.1-0.2-5-0.9-5.7-2c-1.6-2.5,0.1-3.6,7.2-4.9c7.9-1.4,9.4-0.4,9,6
	C869.4,1530.8,866.9,1532.5,864.9,1528.9z M788.3,1527.4c-0.7-1.9,0.3-3.5,2.2-3.5c2,0,3,3,1.3,4.1
	C789.8,1529.2,788.9,1529,788.3,1527.4z M708.2,1524.2c-0.8-2.1,0.9-4.8,3.3-5.2c1-0.2,2.7-1,3.6-1.9c3.5-3.1,13,1.2,11.4,5.2
	c-0.9,2.3-5,3.5-11.7,3.5C710.2,1525.8,708.7,1525.4,708.2,1524.2z M848.3,1517.7c-1.1-1.7,2.3-4.6,3.7-3.2c0.6,0.6,0.9,1.8,0.5,2.7
	C851.9,1519.1,849.3,1519.3,848.3,1517.7z M975.4,1514.4l-3.5-3.6l3.6-3.6c3.5-3.5,3.7-3.6,13.3-4.1c5.3-0.3,11.1-1.1,12.7-1.8
	c1.6-0.7,3.9-1.5,4.9-1.7c1-0.2,2.8-2,3.9-4.1c1.1-2.1,2.9-4.3,4.1-4.9c1.2-0.6,3.4-2.4,4.8-4c1.8-2,3.7-2.9,5.7-2.9
	c1.7,0,3.1-0.4,3.1-0.8s-2-2.2-4.5-4c-6.2-4.4-6.2-7.5,0.2-13.2c5.7-5,7.4-5.5,16.9-4.6c8.5,0.8,9.8,2,6.5,6.1
	c-1.2,1.5-2.1,3.5-2.1,4.6c0,1.7,0.5,1.8,3.2,1.2c1.8-0.4,4.4-1.5,5.9-2.6c5.8-4.1,13.8-1.2,13.8,5c0,4-2.8,6.2-8.1,6.2
	c-2.5,0-5.4,0.7-6.4,1.5c-1.8,1.4-1.8,1.5,1.2,1.5c2.3,0,3.6,0.8,4.9,2.7l1.7,2.7l1.3-3c1.4-3.4,6.9-6.3,8.7-4.5
	c0.8,0.8,0.6,2.1-0.6,4.6c-1.9,4.1-4.5,5.9-6.7,4.5c-2.1-1.3-2.7-1.2-3.2,1.1c-0.4,1.5-1.4,2-4,2c-1.9,0-4.6,0.9-6,2
	c-1.4,1.1-2.9,2-3.3,2c-0.4,0-2.2,1.3-4.1,3c-2.4,2.1-4.5,3-6.9,3c-2.8,0-3.9,0.6-5.7,3.5c-2.6,4-2.8,4-8.3,2
	c-4.6-1.7-15.1-2-16-0.5c-1.2,1.9-8.3,4.9-14.1,6C979,1518.3,979.3,1518.4,975.4,1514.4z M1032.4,1485.9c-0.8-1.3-3.6-1.5-3.6-0.3
	c0,0.4,0.5,1.3,1.2,2C1031.5,1489,1033.5,1487.6,1032.4,1485.9z M868.8,1515.6c0-0.1-0.2-3-0.4-6.2c-0.5-8.5,3.3-12.5,6.9-7.3
	c2.7,3.9,2,8.3-1.8,11.2C870.5,1515.6,869,1516.3,868.8,1515.6z M619,1510.2c-3.1-2.2-3.6-2.3-5.7-0.9c-2.9,1.9-4.8,1.9-6.4,0
	c-1.2-1.5-2.9-1.7-14-1.5c-3.1,0-4.9-0.5-5.7-1.6c-0.9-1.2-2.6-1.6-7-1.4c-3.9,0.1-6.4-0.3-7.8-1.3c-1.1-0.8-3.9-1.5-6.2-1.5
	c-3.6,0-4.2-0.3-4.2-2.1c0-3.5,5.6-5.1,14.2-4c27.3,3.6,25.7,3.5,32.3,2c2.8-0.6,7.1-0.8,9.8-0.5c4.2,0.5,4.8,0.4,4.8-1.3
	c0-1-1.1-2.9-2.5-4.2c-1.4-1.3-2.5-2.9-2.5-3.6c0-1.9,8.4-7.3,11.9-7.6c5-0.4,7.8,3.1,8.6,10.7c0.8,7.5-0.1,9.6-4.9,11.9
	c-2,1-3.5,2.4-3.5,3.4c0,2.8-2.9,6.2-5.3,6.1C623.4,1512.7,620.8,1511.6,619,1510.2z M508.1,1499.6c-2.5-2.5-0.8-7.8,2.4-7.8
	c0.7,0,2.5,1.1,4,2.5c2.6,2.4,2.6,2.6,0.9,4.5C513.4,1501.1,509.9,1501.4,508.1,1499.6z M472.9,1498.1c0-2.9-1.1-3.5-3.1-1.7
	c-1.1,1-3.1,1.4-5.1,1.3c-2.7-0.3-3.4-0.8-3.6-2.9c-0.2-2.1,0.5-3.1,3.8-5.3c2.8-1.9,4.1-3.4,4.1-5c0-3.1,2.2-4.8,5.7-4.4
	c2.4,0.3,2.9-0.1,3.1-2.4c0.4-3.2,4.4-7.8,6.9-7.8c2.9,0,8.3,3.8,8.3,5.9c0,1-0.7,2.5-1.5,3.1c-2.4,2-1.8,4.7,1.6,7
	c2.3,1.6,3,2.8,2.8,4.8c-0.2,2.1-0.9,2.7-3.3,3c-1.6,0.2-3.7,0.9-4.5,1.7c-1.3,1.2-3.6,1.9-12.7,4.2
	C473.4,1499.9,472.9,1499.6,472.9,1498.1z M497.2,1497.3c-1.4-3.7,3.2-11.3,6.1-10.1c1.4,0.5,1.7,1.5,1.2,4.7
	c-0.3,2.2-1.1,4.7-1.8,5.5C501.3,1499.3,498,1499.2,497.2,1497.3z M537.3,1495.4c-0.9-2.2,0.3-3.3,4.8-4.1c2.4-0.4,3.9-0.3,4.4,0.5
	c1,1.7-1.4,3.8-5.3,4.6C538.6,1496.9,537.8,1496.7,537.3,1495.4z M552.2,1494.3c-0.9-2.2,2.2-5.3,3.7-3.8c1.6,1.6,0.7,4.7-1.4,5.1
	C553.7,1495.8,552.6,1495.2,552.2,1494.3z M516.3,1493.4c-0.3-0.8-0.3-1.9,0.1-2.5c0.9-1.5,6.5-1.3,6.5,0.3
	C522.9,1494.4,517.4,1496.2,516.3,1493.4z M530.3,1492.7c-1-1.7,1.3-3.6,2.7-2.2c1.2,1.2,0.4,3.3-1.1,3.3
	C531.4,1493.8,530.7,1493.3,530.3,1492.7z M518.4,1485.8c-0.3-0.6-1.5-1-2.5-1c-2.3,0-4-2.8-4-6.7c0-4,1.7-5.3,7.1-5.3
	c3.9,0,5.1,0.5,6.8,2.6c2.7,3.4,2.6,6-0.2,7.5c-1.2,0.6-2.6,1.8-3,2.5C521.6,1487.1,519.3,1487.3,518.4,1485.8z M338.6,1485.2
	c-1.2-1.2-0.7-4.1,1.2-6.4c1.7-2.1,2.2-2.2,4.5-1.1c3.3,1.5,3.3,3.5,0,6.2C341.5,1485.9,339.7,1486.3,338.6,1485.2z M445.5,1481.1
	c-3.5-2.5-4.7-2.8-12.4-2.8c-6.1,0-8.7-0.4-9-1.3c-0.6-1.7,2.6-5.2,4.7-5.2c0.9,0,2.1-0.5,2.7-1.1c1.3-1.3,5.8-0.3,7.4,1.7
	c3,3.6,18,0.3,18.8-4.1c0.8-4.6,5.4-6.1,8.5-2.7c2.6,2.8,2,4.8-2.4,8.3c-2.3,1.9-4.4,4.5-4.8,6.3c-0.7,2.8-1.2,3.1-5.2,3.3
	C450.3,1483.8,448.6,1483.3,445.5,1481.1z M350.6,1482.2c-1.2-1.2-0.7-7.9,0.6-9.8c2.2-3.1,5.1-1.6,5.5,2.8
	C357.1,1480.3,353.2,1484.8,350.6,1482.2z M388.4,1481.8c-1-1.6,1.4-5,3.6-5c2.5,0,3.6,2.5,1.9,4.5
	C392.5,1483,389.3,1483.3,388.4,1481.8z M552.6,1482.2c-1.3-1.3-0.6-3.3,1.5-4.4c1.7-0.9,2.4-0.8,3.6,0.3c1.3,1.3,1.2,1.7-0.2,3.1
	C555.7,1482.9,553.7,1483.3,552.6,1482.2z M410.2,1477.6c-2.4-3.2-4.5-8.5-4.2-10.3c0.3-1.5,1.3-2,4.1-2.3c4-0.3,4.6-1.2,2.3-3.1
	c-0.8-0.6-1.7-2.4-2.1-3.9c-0.4-1.5-1.6-3.5-2.6-4.5c-1.1-1-1.8-2.1-1.6-2.5c0.2-0.4,1.1-2.4,2.1-4.4c2-4.3,1.7-4.2,7.6-2.2
	c5.9,2.1,6.7,2.8,7.5,7.2c1.1,6,3.2,9.1,6.3,9.4c2.2,0.3,2.8,0.8,2.8,2.8c0,2-0.6,2.6-2.9,3c-1.9,0.3-3.5,1.6-4.6,3.5
	c-1,1.8-2.6,3.1-4.1,3.3c-1.3,0.2-3.4,1.4-4.6,2.8C413.7,1479.1,411.6,1479.5,410.2,1477.6z M1130.4,1473.9
	c-1.8-0.4-3.1-1.4-3.3-2.4c-0.3-1.5,0.2-1.8,3.5-1.5c3.1,0.3,3.9,0.7,4.2,2.6c0.2,1.2,0,2.2-0.5,2.1
	C1133.8,1474.6,1132,1474.3,1130.4,1473.9z M1116.1,1470.9c-1.3-0.3-2.3-1-2.2-1.6c0.1-1.4,6.3-1.3,6.8,0.1
	C1121.1,1470.9,1118.9,1471.6,1116.1,1470.9z M1249.8,1467.2c-3.1-2.8-4-4.3-3.8-6.2c0.6-5,9.5-3.7,13.8,2.1
	c1.9,2.5,2.1,3.5,1.2,5.4C1259.3,1472.1,1254.8,1471.6,1249.8,1467.2z M363.3,1466.4c-2.3-3.4-1.5-6,1.9-6.4
	c3.4-0.4,5.7,1.3,5.7,4.2C370.9,1469,366,1470.4,363.3,1466.4z M377,1467.4c-1.6-1.9-1-6,0.9-6.4c2.3-0.4,4.9,2,5.2,4.8
	c0.2,2-0.2,2.6-2.3,2.8C379.4,1468.8,377.7,1468.2,377,1467.4z M1082.5,1465.6c-4.3-6.5-4.1-11.3,0.5-13.8c3.2-1.7,6.2-0.4,10.8,4.6
	c3.4,3.7,4.1,5.2,3.9,7.8l-0.3,3.2l-6.7,0.3C1084.6,1467.9,1083.8,1467.7,1082.5,1465.6z M1142.3,1465.4c-1.1-2.9,0.1-6.1,2.4-6.4
	c2.8-0.4,3.9,2.1,2.4,5.4C1145.8,1467.1,1143.1,1467.6,1142.3,1465.4z M445.2,1464.3c-0.7-1.7,1.3-4.5,3.2-4.5
	c1.7,0,2.4,2.1,1.3,4.2C448.6,1466.2,446,1466.4,445.2,1464.3z M1102.9,1462.4c-0.9-1.1-0.9-1.9,0.1-3.4c1-1.6,1-2.5-0.1-4.5
	c-2-3.7-0.7-5.8,3.2-5.4c2.4,0.2,3.3,0.8,3.6,2.5c0.2,1.2,2.1,3.4,4.3,4.9c4.8,3.3,3.9,5.5-2.3,5.5c-2.2,0-4.8,0.4-5.8,1
	C1104.6,1463.5,1103.8,1463.4,1102.9,1462.4z M1415.6,1457.2c-1.3-1.3-0.6-5.1,1.2-6.7c1.7-1.6,2-1.6,3.5-0.1
	c1.9,1.9,2.1,4.6,0.4,6.3C1419.4,1457.9,1416.6,1458.2,1415.6,1457.2z M1156.5,1449.9c-8.9-1-10.7-2.8-9.9-10.3
	c0.3-2.9,1.2-6.2,1.9-7.4c0.8-1.2,1.4-2.9,1.4-3.7c0-0.8,2-2.2,4.6-3.2c5.2-2,12-9,13-13.5c0.9-4.2,4.9-7.1,8.1-5.9
	c1.4,0.5,3,0.7,3.5,0.3s2.1,0,3.4,0.7c2.9,1.6,8.5,0,14.8-4.2c5.2-3.4,13.8-4.6,19.3-2.8c4.9,1.7,7.1,3.5,9.1,7.7
	c1.4,2.9,1.4,4.3,0.5,9.7c-1.1,6.2-0.7,12.1,1,13.1c0.5,0.3,2.4,0,4.3-0.7c4.7-1.7,6.6-0.1,6.6,5.7c0,5-1.3,6.3-4,3.9
	c-1.8-1.6-2-1.6-4.6,0.4c-2.2,1.8-3.6,2-7.8,1.5c-7.2-0.8-19.9-3.5-21.1-4.5c-0.6-0.4-3-0.9-5.5-1c-5.8-0.3-13.7,3.8-18.7,9.6
	C1171.8,1450.3,1168.3,1451.1,1156.5,1449.9z M1406.6,1450.2c-0.9-0.9,1.2-3.4,3-3.4c1.9,0,1.2,3.4-0.8,3.8
	C1408,1450.8,1407,1450.6,1406.6,1450.2z M371.2,1447.2c-1.5-2.3-1.6-2.9-0.2-5.2c2.1-3.7,5.9-3.6,7.2,0.2
	C380.3,1448.5,374.7,1452.5,371.2,1447.2z M1432.2,1447.3c-0.8-2,0.2-4.4,2.2-5.2c2.3-0.9,3.4,0.7,2.8,3.9
	C1436.6,1449.1,1433.3,1449.9,1432.2,1447.3z M265.9,1439.8c-0.8-0.5-2.3-1.1-3.2-1.4s-1.8-1.4-1.8-2.4c0-1-0.6-2.4-1.4-3.1
	c-0.8-0.6-2-2.6-2.7-4.4c-0.7-1.8-1.9-4-2.8-5c-0.8-1-1.9-4.1-2.3-7c-0.6-3.8-1.5-5.7-3.1-6.7c-1.3-0.8-3.5-2.7-5.1-4.2
	c-3.2-3.1-3.4-7.3-0.4-9.2c1.5-0.9,2.8,0,8.8,6c6.5,6.7,7,7.4,7,11.6c0,3.3,0.7,5.5,2.8,8.3c3.6,5,12.4,14.1,14.2,14.7
	c0.9,0.3,1.2,1.1,0.8,2.1c-0.5,1.2-1.8,1.7-4.9,1.6C269.3,1440.7,266.7,1440.3,265.9,1439.8z M1384.6,1440.2c-1.3-1.3-0.6-3,2.8-7.1
	c2.9-3.3,3.4-4.6,2.9-7.1c-0.5-2.6,0-3.7,3.6-7.6c2.3-2.5,5.1-4.6,6.1-4.6c1,0,2.6-1.1,3.5-2.5c2.4-3.7,4.4-3.2,4.4,1
	c0,1.9,0.5,4.4,1.2,5.4c1.5,2.3-0.2,4.8-3.5,5.3c-1.4,0.2-2.3,1.1-2.5,2.6c-0.2,1.3-1.3,2.7-2.7,3.2c-1.5,0.6-2.7,2.1-3.2,4.2
	c-0.6,2.4-1.5,3.4-3.3,3.6c-1.3,0.2-3.5,1.2-4.8,2.2C1386.4,1441,1385.6,1441.2,1384.6,1440.2z M1427.6,1437.2
	c-1.4-1.4-0.7-7.1,1.1-8.7c1.7-1.6,2-1.5,4.2,0.9c2.2,2.4,2.3,2.7,0.9,5.2C1432.4,1437.2,1429,1438.6,1427.6,1437.2z M1277.4,1432.9
	c-0.3-0.5-0.3-2.1,0.1-3.5c0.4-1.8,0.1-3.2-1.1-4.5c-2.4-2.6-1.3-4.8,2.9-5.5c5.8-1.1,7.2-0.4,6.9,3.7
	C1285.8,1429.7,1279.7,1436.6,1277.4,1432.9z M1300.1,1431.7c0.4-3,4.3-3.3,4.3-0.3c0,1.3-0.8,2.1-2.3,2.3
	C1300.1,1433.9,1299.8,1433.6,1300.1,1431.7z M1416.6,1431.2c-1.1-1.1-0.7-4.9,0.9-9c2.8-6.9,3.8-8.4,5.8-8.4c1.8,0,1.9,0.5,1.4,6.7
	c-0.5,4.9-1.2,7.3-2.8,9C1419.5,1431.8,1417.8,1432.4,1416.6,1431.2z M1267.9,1429.3c-1.3-1.6-0.7-4.5,0.8-4.5
	c1.6,0,3.4,2.9,2.8,4.5C1270.8,1431.2,1269.5,1431.2,1267.9,1429.3z M1302,1423.5c-0.9-1.1-0.8-1.7,0.4-2.7c2.3-1.9,4.5,0.4,2.3,2.6
	C1303.4,1424.7,1303,1424.7,1302,1423.5z M1230.9,1420c0-2.6,0.7-4.4,2-5.7c3.2-2.9,2.5-5.9-2.2-9.9l-4.2-3.6l2.2-1.7
	c7.4-5.8,10.9-7.2,17.7-7.1c4.7,0.1,7.1-0.3,8.4-1.4c1-0.9,3.4-2.3,5.3-3.3c1.9-1,4.7-2.9,6.2-4.3c2.5-2.3,3-2.4,5.3-1.2
	c3.2,1.7,4.4,0.6,5.2-4.6c0.3-2.2,0.9-4.1,1.3-4.4c0.4-0.3,3.7-3.9,7.4-8c8.1-9,11.5-11.4,21.4-15.1c1.8-0.7,4.9-2.5,6.9-4.1
	c2-1.6,4.4-2.9,5.3-2.9c0.9,0,2.1-0.4,2.6-0.9s3.8-1.6,7.3-2.5c3.5-0.9,7.6-2.5,9.2-3.6c3-2.1,10.4-2.8,11.5-1c0.3,0.6-1,1.7-3,2.5
	c-2,0.8-3.4,2.1-3.2,2.7c0.2,0.7,1.1,1,1.8,0.7s3.6-0.4,6.4-0.2s6.9-0.3,9.2-0.9c3.5-0.9,4.2-1.6,4.2-3.5c0-1.9,0.5-2.4,2.9-2.4
	c2.9,0,5.7,2.1,4.4,3.3c-0.4,0.4-1.7,0.7-3,0.7c-1.6,0-2.3,0.6-2.3,1.8c0,2.3-1.9,4.2-4.3,4.2c-2,0-2,0.1,0,11.7
	c0.6,3.6,6.5,9.6,9.1,9.1c2.8-0.5,2.5-2.8-0.7-5.7c-3.2-3-4.2-7.7-1.8-8.6c0.7-0.3,4-0.1,7.2,0.3c5.9,0.7,6,0.8,6.3,4.1
	c0.2,2,1,3.5,2,3.9c0.9,0.3,2.7,1.5,4,2.7c2.3,2.1,2.4,2.1,3.8,0.2c0.8-1.1,1.4-2.6,1.4-3.4c0-1.9-7.7-9.1-11.8-10.8
	c-1.8-0.8-3.2-1.8-3.2-2.2c0-2.2,4.2-12.8,5.4-13.7c0.8-0.6,3.1-3.3,5.1-6c5-6.7,13.6-15.1,21-20.6c5.6-4.2,14.9-8.9,17.6-8.9
	c0.7,0,3-1.6,5.1-3.6c3.8-3.4,4.2-3.5,9.3-2.9l5.4,0.7l5.8-5.9c3.2-3.2,7.4-6.7,9.4-7.8l3.6-1.9l3.6,2.7c4.3,3.3,10.3,4.6,11.6,2.5
	c1.7-2.7,1-6.9-1.6-9.5c-1.4-1.4-2.5-2.7-2.5-3c0-1.8,12-17.1,16-20.5c2.7-2.3,5-4.7,5-5.3s1.8-2.7,4.1-4.5c3-2.5,4.4-3.1,5.2-2.2
	c2.1,2.1,4.6,1.2,6.2-2.2c4.4-9.2,15.4-17.7,19.1-14.7c2.3,1.9,3,0.2,1.5-3.3c-2.3-5.7-2.4-8.7-0.3-15.5c1.1-3.7,3.5-12.1,5.2-18.7
	c4.2-16.4,4.4-17,6.1-16.8c5.1,0.8,7.7,1.8,9.2,3.7c2.3,2.8,5.3,1.1,5.3-3c0-2.8-0.1-2.9-5.8-3c-3.2-0.1-6-0.4-6.3-0.7
	c-1.3-1.3-2.4-9.5-1.8-13.2c0.9-5.3,4-10.8,7.6-13.5c1.6-1.2,3.7-3.8,4.8-5.8c1.4-2.7,3.9-4.9,8.8-7.8c5.2-3.1,6.8-4.5,6.5-6
	c-0.6-3.5-0.3-5.9,0.9-8.2c1.8-3.4,0.4-3.8-3.4-0.9c-1.9,1.4-4.4,2.6-5.5,2.6c-1.2,0-2.4,0.5-2.8,1.1c-0.4,0.6-2.5,2.4-4.7,4
	c-3.2,2.3-5.1,2.9-9,2.9c-3.8,0-7.1,1-14.4,4.6c-14.3,6.9-19.1,5.8-22.8-5.1c-0.9-2.7-2.8-5.1-6-7.4c-4.1-3.1-4.6-3.9-4.1-6.2
	c0.5-2.4,0.3-2.8-1.9-2.8c-2.8,0-3.2,0.8-4.2,7.4c-0.5,3-1.4,5-2.6,5.7c-1.5,0.8-1.9,2.1-1.8,6.7c0,3.1,0.7,6.8,1.5,8.2
	s1.4,4.4,1.5,6.7c0,3.7-0.3,4.4-2.9,5.8c-4.8,2.5-7.7,1.9-12.5-2.5c-4.7-4.4-5.7-6.2-8.1-15.7c-2.3-9.3-4.8-14.2-10.4-20.8
	c-2.8-3.3-5.1-6.5-5.1-7.2s-0.7-1.3-1.5-1.3c-0.8,0-1.5,0.5-1.5,1.1c0,2.4-6.2,8.9-8.4,8.9c-2.7,0-5.6-2.9-5.6-5.7
	c0-1.3-0.8-2.3-2.2-2.7c-3.8-1-4.6-0.7-4.9,1.6c-0.4,2.7-3.6,3.1-5.2,0.6c-0.8-1.2-0.7-2.4,0.2-4.1c1-1.9,1-2.9,0.1-4.6
	c-0.7-1.3-0.9-3.5-0.5-5.2c0.7-3-0.5-4.8-3.1-4.8c-1.8,0-11.9,6.9-15.2,10.5c-3.4,3.7-6.3,4.4-8.3,2c-1.8-2.1-3.6-1.9-7.8,1
	c-2,1.4-5.4,3-7.5,3.6c-4.7,1.3-7.7,4.2-7.7,7.5c0,2.6-0.4,2.8-5.1,3.9c-1.4,0.3-4.2,1.7-6.3,3.1c-2,1.4-4.3,2.5-5.1,2.5
	s-2.7-1.7-4.4-3.9c-2.9-3.6-3.4-3.9-8.6-3.9c-6.4,0-8.8-1.5-8.4-5.2c0.4-3.1,3.8-4,7.5-2c3.1,1.7,6.7-0.2,10.1-5.1
	c2.2-3.3,2.3-4,1.7-13.2l-0.7-9.8h3c3.7,0,8.3-2,7.8-3.4c-0.6-1.8-6-2.7-9-1.5c-1.6,0.7-3.1,0.8-3.6,0.2c-1.4-1.6-3.4-9.8-3.5-14.3
	c-0.1-3.8,0.4-4.8,3.5-7.5c2-1.7,4.1-4.2,4.8-5.4s2.8-4.1,4.8-6.3c3.8-4.2,3.8-4.7,1-12.9c-0.9-2.5-2-6.3-2.6-8.5
	c-0.6-2.2-2.8-6.9-4.9-10.5c-3.6-6-3.9-7.3-4.6-16.2c-0.5-7.7-0.3-10.4,0.8-12.6c1.7-3.2,1.2-4.1-2.1-4.1c-2.9,0-4.5-3-4.6-8.4
	c-0.1-5,0.7-6.6,3.3-6.6c1.1,0,2.3-0.8,2.6-1.8c1.1-2.9,5.5-8.5,10.5-13.3c4.6-4.4,6-8.1,3.7-9.5c-2.1-1.3-6.3,3.2-10.4,11
	c-3.5,6.7-4.8,8.2-8.9,10.3l-4.8,2.5l0.5,5.6c0.3,3.1,0.8,7.6,1.2,10.1c0.5,3.7,0.2,5.1-1.8,8c-2.1,3-2.9,3.5-6.4,3.5
	c-3.2,0-4.9,0.8-8.9,4.2c-4.4,3.8-5.5,4.2-10,4.2c-3.7,0-6,0.7-8.7,2.5c-3.3,2.2-4.6,2.5-13.9,2.4c-9.1-0.1-10.7-0.4-14.1-2.5
	c-2.1-1.3-4.4-2.4-5.2-2.4c-1.9,0-7.6-9-7.6-12c0-1.3,0.7-3.1,1.6-4.1c2-2.3,1.1-4.9-1.7-4.9c-3,0-8.2-5.8-11.4-12.7
	c-2.5-5.3-2.6-6-1.4-9.8c0.7-2.2,3.7-7,6.6-10.6c2.9-3.6,5.3-7.2,5.3-8.2c0-0.9,1.7-3.1,3.7-4.8c4.1-3.4,2.8-4-2.7-1.3
	c-2.2,1.1-5,4.1-7.7,8.2c-2.4,3.6-6.2,8.4-8.6,10.7l-4.3,4.2l-5.8-5.7c-6.6-6.5-7.6-8.6-5.3-11.1c0.9-1,1.6-2.8,1.6-4
	c0-2.1-0.3-2.2-4.4-1.6c-3.9,0.6-4.6,0.4-6.5-2.1c-2.3-3-2.3-4.4-0.1-5.4c0.8-0.4,3.7-1.7,6.4-3.1c2.7-1.3,5.7-2.3,6.6-2.1
	c2.6,0.4,5.1-3.2,5.8-8.4c0.6-4,1.1-4.9,3.1-5.4c1.7-0.4,2.8-1.8,3.8-4.5c1.6-4.7,0.8-5.9-3.2-4.4c-4.5,1.7-8.5-0.2-8.5-4
	c0-3.8,2.1-5.5,5.8-4.7c2,0.4,3.3,0.2,4.1-0.9c1.5-1.8,0.6-3.6-1.7-3.6c-0.9,0-3.2-1.7-5-3.8l-3.3-3.8l-1.6,2.2
	c-1.7,2.4-4.3,2.9-7.4,1.2c-1.7-0.9-1.9-2.1-1.9-9c0-4.6-0.4-8-1-8c-0.5,0-1,2.5-1,5.6c0,4.8-0.3,5.5-1.8,5.2
	c-1.5-0.3-1.7-1.3-1.4-6.8c0.2-3.6,0.8-7,1.3-7.7c1.4-1.7,0.1-3.3-2.6-3.3c-2.8,0-4.4-1.7-5.2-5.8c-0.3-1.7-2.4-5.2-4.5-7.6
	l-3.9-4.4l1.1-6.8c1.5-9.4,4-15.5,6.2-15c1.2,0.3,1.8-0.3,2-2.2l0.3-2.6l9.7,0.3l9.7,0.3l-0.3-8.6c-0.5-11.9,1.4-15.4,15.7-29
	c19.6-18.7,18-17.5,23.1-17.5c3.3,0,4.9,0.5,5.3,1.5c1,2.5,2.1,1.7,2.8-2c0.4-2,1.5-4,2.7-4.6c1.6-0.9,1.8-1.4,0.8-2.5
	c-0.9-1.1-0.9-3.2,0-9.2c1.8-12,2.8-14.6,7.2-20.1c5.7-7.2,7.3-7,16.4,2.4c7.3,7.5,8.8,8.4,10,6.5c1.5-2.4-2.1-8.1-8.2-13.1
	c-3.5-2.8-6.3-5.9-6.3-6.8c0-2.9,3-6.1,8.1-8.7c3.9-2,5.8-2.4,9-1.8c4.7,0.7,12.7,6.4,14,9.9c0.8,2.2,9.6,9.8,15.5,13.4
	c2.1,1.3,2.8,1.2,7.7-1.4c2.9-1.5,7.2-4.8,9.5-7.2c2.3-2.4,5.1-4.4,6.1-4.4c1,0,3.9-2.3,6.3-5.1c2.4-2.8,7.1-7.7,10.3-11
	c3.3-3.2,5.7-6.1,5.5-6.3c-0.4-0.4-5.2-0.9-14.2-1.5c-1.6-0.1-0.7-6.1,1.2-8.1c2.3-2.3,3.2-2.4,6.3-0.8c1.2,0.6,2.9,1.5,3.7,1.9
	c0.8,0.4,1.7,2,2,3.6c0.3,1.9,1.2,3,2.5,3.2c2.5,0.5,6.5,4,7.6,6.9c0.6,1.5,2,2.4,4.1,2.7c23.8,3.6,23.6,3.6,32.6-5.5
	c9.5-9.7,11.7-12.7,13.6-18.6c2.2-6.8,2.1-9.9-0.4-13.4c-1.7-2.4-2-3.9-1.5-8.4c1.9-17.9,2-16.4-0.8-19.3c-1.4-1.5-2.9-4.1-3.2-5.9
	c-0.7-3.7-3.7-6-8.5-6.4c-3.1-0.3-3.4-0.6-3.2-3.6c0.1-1.8,0.9-4.4,1.8-5.8c1.4-2.2,2.2-2.4,4.9-1.9c1.8,0.4,4.2,1.3,5.4,2.1
	c3.9,2.5,5.9,1.7,8.3-3c1.3-2.7,3.5-5.3,5.7-6.5c3.8-2.3,3.7-1.5,1.7-11.4c-0.7-3.4-7.8-10.6-10.4-10.6c-1,0-3.3,1.7-5.1,3.9
	c-4,4.7-8.7,6.1-12.3,3.7c-3.3-2.2-5.5-2-5.5,0.4c0,2.3-3.2,4.5-7.8,5.5c-8.6,1.8-15.7,6.2-23.9,14.9c-5,5.3-8.9,8.6-10.1,8.6
	c-2.3,0-5.1-4.5-5.1-8.4c0-3.3-1.8-7.5-4.6-10.6c-1.2-1.4-2.4-3.8-2.6-5.3c-0.5-3.9-2.3-3.9-2.6-0.1c-0.2,2.4,0.5,4,2.8,6.6
	c3.8,4.4,3.8,5.6,0,9.3l-3.1,2.9l-2.4-2.8c-1.3-1.5-2.4-3.4-2.4-4.1c0-1.8-5.7-6.9-11-10c-4.2-2.4-5.3-2.6-14.5-2.2
	c-5.5,0.2-10.8,0.7-11.7,1.1c-1,0.4-4.4,0.4-7.6,0.1c-4.6-0.5-6.1-0.3-7.1,0.9c-2.7,3.3-15.9,1.4-23.7-3.4
	c-8.9-5.4-15.6-9.1-19.2-10.3c-5.4-1.9-14.4-9.3-16.9-13.9c-3-5.7-2.9-12.2,0.2-16l2.4-2.9l-2.3-5.6c-1.2-3.1-2.5-5.9-2.9-6.2
	s-0.6-1.7-0.6-2.9c0-1.2-1-3.5-2.3-5.1c-6-7.4-7-10.9-3.9-13.7c2.5-2.3,5.6-2.2,4.6,0.1c-1.3,2.9-0.7,6.6,1.2,7.9
	c3.5,2.6,11.4,1,11.4-2.3c0-0.9,1.5-2.9,3.2-4.6l3.2-3l-3-2.4c-1.9-1.5-4.3-2.4-6.7-2.4c-4.3,0-7.4-1.2-14.3-5.6
	c-2.8-1.7-6.3-3.5-7.8-3.8c-4.3-1-12.5-9.2-13.8-13.8c-0.9-3.1-2.3-4.7-6.6-7.4l-5.4-3.5l0.5-5.4c0.3-3.9,1.1-6.1,2.8-7.9
	c2.8-3,4.1-3.1,6.4-0.6c1.9,2.1,1.4,4.1-1,4.1c-0.8,0-1.9,0.9-2.4,1.9c-1.6,3.1,0.5,3.5,5,0.9c3.3-1.9,4.5-2.1,6.8-1.2
	c3.8,1.4,4.9,0.8,7.2-4.1c2.5-5.4,5.9-7.7,10-6.9c1.7,0.3,3.3,1,3.6,1.5c0.3,0.5,1.2,0.9,1.9,0.9c2,0,7.5-5,8.6-7.7
	c0.7-1.9,1.6-2.3,4.5-2.3c2.5,0,4.7-0.9,7.5-3.2c4.2-3.4,4.7-4.3,2.6-5.1c-1.7-0.6-11.1,3.7-15,7c-1.6,1.3-3.9,2.4-5.2,2.4
	c-5.3,0-1.9-3.4,8.3-8.3c4-1.9,8-3.7,9-4c1-0.3,2.5-1,3.3-1.5c2.5-1.5,8.4-3.2,11.3-3.2c3.6,0,3.6,2.8,0,3.2
	c-4.5,0.5-4.1,2.8,0.6,2.8c3,0,4.3,0.5,5.1,1.9c0.6,1.2,2.3,2.1,4.2,2.2c2.5,0.2,3.3,0.9,3.8,2.8c0.6,2.5,3.6,3.7,6.6,2.6
	c2.1-0.8,0.2-4.1-3.3-5.8c-3.8-1.9-5-4.1-3.8-7.5c0.7-2,1.8-2.9,4-3.3c2.1-0.4,3.1-1.2,3.3-2.7c0.6-4.1,5.2-6.3,13.4-6.3
	c4.1,0,7.8-0.4,8.3-0.9c0.5-0.5,3-1.1,5.4-1.2c3.6-0.3,4.5,0,4.8,1.4c0.3,1.3-0.7,2-3.8,2.8c-3.4,0.9-3.9,1.4-2.9,2.6
	c1.7,2,3.3,1.8,5.5-0.7c1-1.2,4.1-3.3,6.8-4.8s6-3.3,7.5-4c1.8-1,6.3-1.4,15.2-1.4c10.9,0,13,0.2,15.3,1.9c3.3,2.4,3.4,3.2,0.5,3.6
	c-1.5,0.2-2.4,1.2-2.9,3.3c-0.4,1.6-1.4,4.3-2.3,6c-2.1,3.9-2.1,5.7,0.1,5.3c1.3-0.2,1.8,0.5,2.1,2.9c0.3,2.8-0.1,3.4-3.2,4.7
	c-2.3,1-3.6,2.2-3.8,3.8c-0.2,1.5-1.1,2.4-2.6,2.7c-1.2,0.2-2.2,0.5-2.2,0.7s1.3,1.8,3,3.6c1.6,1.8,3.2,4.5,3.6,6.1
	c0.8,3.5,3.4,5,7.4,4.2c2-0.4,3.7-0.1,4.7,0.8c1.2,1,4.2,1.3,10.7,1.2c9.7-0.2,13.8,1.3,15.2,5.8c0.6,1.9,0.8,1.9,3,0.5
	c3-2,8.5-2,11-0.1c1.2,0.9,3.1,1.3,5.1,0.9c2.6-0.5,3.7,0,5.8,2c3.2,3.2,4.2,3.3,5.1,0.4c0.4-1.2,1.7-3.4,2.9-4.8
	c1.2-1.4,2.8-4.3,3.5-6.5c1.9-6,3.6-7.5,8.6-7.5c2.9,0,5.5,0.8,8,2.5c2,1.4,4.1,2.5,4.5,2.5c2,0,0.6-3.4-3.3-7.6
	c-3.9-4.3-4.4-4.5-8-3.9c-2.6,0.4-4.9,0.1-7.3-1c-2-1-4.4-1.4-6-1c-3.2,0.8-4.1-1.3-2.6-5.8c2.3-6.8-5.5-24-12.9-28.5
	c-2.1-1.3-7-10.4-7-13c0-0.8,0.9-2.7,2.1-4.4c2-2.8,2.5-2.9,7.8-2.7l5.6,0.3v5c0,4.1,0.5,5.7,2.8,8.4c2.9,3.4,2.9,3.9,1.1,11.3
	c-0.5,2-0.2,3.3,1,4.6c0.9,1,2.1,3.4,2.7,5.2c0.5,1.9,2.8,5.4,5,7.8c3.5,3.9,4.3,4.3,6,3.2c1.1-0.7,2.9-1.2,4-1.2
	c2.9,0,2.2-2.9-1.2-4.9c-11.9-7-14.4-24.9-4.8-34.2c4.9-4.8,5.4-8.4,1.3-10c-1.5-0.6-6.9-1.1-12-1.2c-5.1-0.1-9.7-0.6-10.3-1.3
	c-0.7-0.7-4.5-0.9-10.8-0.6l-9.7,0.4l-2.9-3.1c-1.6-1.7-3.6-3.1-4.4-3.1c-2.7,0-11.7-6.8-13.3-10.2c-1-2.1-1.9-6.9-2.2-12.7
	c-0.3-5.5-1.1-10.2-1.9-11.5c-1.2-1.9-2.7-9.6-3.1-16.7c-0.1-2.5-5.7-10.9-9.6-14.4c-1.1-1-2.1-2.9-2.1-4.1c0-1.3-2.2-4.3-5.8-7.8
	c-3.2-3.1-6.5-6.9-7.4-8.5c-0.9-1.6-3.4-4.2-5.7-5.8c-10.2-7.3-17-13.6-17.7-16.2c-1-3.9-6-12.4-8.9-15.1c-1.4-1.3-5.7-4-9.8-6.1
	c-13.4-6.9-12.3-9,6.6-12.8c3.7-0.7,4-1.1,4.3-4.4c0.2-2.3,1.2-4.5,2.8-5.9c2.2-2.1,2.4-3.1,2.4-10.5c0-12,3.3-18.5,7-13.9
	c0.7,0.8,1.7,1.5,2.2,1.5s2.8,1.5,5,3.2c4,3.2,4.2,3.2,13.7,3.2c19.1-0.2,40.5-2,44.5-3.7c5.4-2.3,31.5-24.5,38.5-32.7
	c5.7-6.6,5.8-6.9,6.5-14.4c1-10.2,1.8-12.8,5.6-17.6c4-5.1,3.1-6.2-1.6-2c-3.7,3.2-6.4,3.7-7.2,1.3c-0.2-0.7,4.6-6.2,10.8-12.2
	c9-8.7,11.8-10.9,13.9-10.7c6.6,0.4,10.2-0.2,10.9-1.9c0.4-1,1.9-3.8,3.5-6.2c3.2-5,3.4-6.1,1.4-6.1c-0.8,0-3.3,2.7-5.7,6
	c-2.3,3.3-4.7,5.9-5.3,5.6c-0.6-0.2-1-2.1-1-4.1c0.1-2.9,1-4.6,4-7.7c4.9-5,7.2-6.4,8.6-5c0.7,0.7,1.6,0.7,3,0
	c2.2-1.2,5.4,1.1,6.9,4.9c1.1,2.8,5.1,3,12.9,0.7c2.9-0.9,6.3-1.3,7.6-1c3.1,0.8,3.8-0.7,1.4-2.9c-3.6-3.2-2.5-4.1,5.1-4.1
	c7.8,0.1,6.8,0.7,15.7-10.3c1.8-2.3,4.1-4.1,5.1-4.1c2.9,0,5.2,3.3,4.5,6.6c-0.5,2.3,0,3.4,1.9,5.2l2.4,2.3l1.7-2.6
	c1.3-1.9,1.4-3,0.6-3.7c-0.6-0.6-1.1-2-1.1-3.1s-0.7-2.7-1.5-3.6c-1.6-1.8-2.3-7.9-1.2-9.8c0.4-0.7,2-1.2,3.5-1.2
	c3.2,0,5.4-2.1,7.6-7.3c0.9-2.1,2.3-4,3.3-4.3c0.9-0.3,3.1-1.2,4.7-1.9c3.2-1.4,15-2.3,16.1-1.2c0.4,0.4-0.7,1.2-2.2,1.9
	c-4.1,1.8-6.4,3.9-6.4,5.9c0,2.9,1.9,3.2,3,0.4c0.8-2.1,1.3-2.4,2.8-1.6c1,0.5,2.4,1.7,3.1,2.5c2.4,2.9,7.2,2.9,13.1,0.2
	c3-1.4,7-2.6,8.8-2.6c5.2,0,10-2.6,16.9-9c3.5-3.3,6.8-6,7.3-6c1.5,0,9.1-10.9,13.1-18.9c4-8,6.8-10.7,12-11.8
	c5.6-1.1,8.1,3.5,3.2,5.9c-3.6,1.7-3.6,4.3-0.1,4.4c3.4,0.1,8.7,3.4,10.2,6.4c0.6,1.3,2.7,3.1,4.7,4.1c6.6,3.5,7.7,7.8,3.6,15.1
	c-3.2,5.6-4.8,6.6-8.7,5.1c-5.3-2-6.3-0.1-2.4,4.6c1.4,1.6,2.5,3.7,2.5,4.6c0,3.6,9.4,4.3,10.7,0.8c0.3-0.8,0.1-2.3-0.6-3.4
	c-1.8-2.9-1.4-3.9,3.3-8c2.8-2.5,4.6-4.9,4.8-6.6c0.2-1.8,1-2.8,2.3-3.1c1.1-0.2,3-1.3,4.3-2.5c1.6-1.5,2.7-1.8,3.6-1.2
	c0.7,0.5,3.9,2.7,7.1,4.9c5.6,3.8,5.7,4,5.1,7.5c-2,11-2.1,10.6,1.9,13.7c5,3.8,8.9,3.5,13.5-1.1l3.5-3.4l8.6,0.5
	c5.5,0.3,8.9,0.1,9.3-0.5c1-1.7,6.5-1.2,11,0.9c2.2,1.1,6.9,2.1,10.3,2.3c10.1,0.7,15.6,6.5,9.8,10.3c-3.2,2.1-5.3,8.3-3.7,11.3
	c0.9,1.6,2.5,2.3,7.1,2.8c4.9,0.6,6,1,6,2.5c0,1.6-0.8,1.9-4.5,1.9c-3.2,0-4.5,0.4-4.5,1.4c0,3,6.7,2.9,10.2-0.1
	c2-1.8,4.7-1.4,6.2,0.9c0.8,1.3,0.6,2.2-1.2,4.2c-2.3,2.4-2.3,2.5-0.3,3.5c1.1,0.6,3.6,1.1,5.5,1.1s4,0.7,4.7,1.5
	c2.4,2.9,8.2,1.2,14-4.1c3.4-3.1,3.7-3.2,9.8-2.7c7.7,0.7,8.6,2.2,4.3,6.7c-1.7,1.8-3.1,3.5-3.1,3.9c0,1.4,2.8,0.6,4.5-1.3
	c1-1.1,4.3-2.7,7.4-3.6c3.1-0.9,6.4-2.3,7.4-3.2c1-0.9,5.4-2.1,9.9-2.8c5.4-0.8,8.3-1.7,8.9-2.8c0.5-0.9,2.1-1.6,3.5-1.6
	c2.1,0,2.5,0.4,2,2.1c-0.4,1.5,0.3,2.9,2.4,4.9c2.3,2.2,2.9,3.6,2.9,6.9c0,2.3,0.5,4.1,1,4.1c0.6,0,1-0.9,1-2.1
	c0-6.9,6.2-8,12.7-2.4c2.2,1.9,5,3.5,6.1,3.5c3.4,0,4.6,2.4,2.8,5.9c-1.9,3.7-0.7,4,2.5,0.6c3-3.1,3.8-3.1,5,0
	c0.9,2.5,1,2.5,3.5,0.9c2.1-1.4,3-1.5,5.6-0.4c1.7,0.7,3.5,2.1,4,3.1c0.5,1,1.9,1.9,3.1,1.9s3.4,1.4,5.1,3.2l3,3.2l1.9-2.5
	c1-1.3,1.9-2.8,1.9-3.3c0-0.5,3.1-0.5,6.9-0.2c5.1,0.5,8.1,0.3,11.5-0.9c2.6-0.9,5.9-1.3,7.6-1c3.1,0.6,3.9-0.4,1.9-2.4
	c-2.7-2.7,3-4.5,7.2-2.3c2.1,1.1,2.6,3.6,0.8,4.2c-0.7,0.2-0.8,0.9-0.4,1.7c0.4,0.7,1.3,1,2,0.8c1.3-0.5,4.2,1.1,14,7.7
	c4.8,3.2,6.3,3.7,9,3.2c1.8-0.3,4.4-0.1,5.9,0.5c2.2,1,3.5,0.7,10.5-3c4.3-2.3,8.2-3.8,8.5-3.5c1.1,1.1,7.1-2.1,10-5.4
	c1.8-2,3.8-3.3,5.4-3.3c1.4,0,3.4-0.5,4.6-1.1l2.1-1.1l-2.2-0.8c-1.2-0.5-2.2-1.5-2.2-2.4c0-2.3,3.7-5.6,5.5-4.9
	c1.7,0.7,2.1,3.9,0.5,4.9c-2.3,1.4-0.7,2.6,3.2,2.3c4-0.3,4.2-0.5,4-3.1c-0.3-2.4,0-2.8,2-2.5c1.7,0.2,2.4,1.1,2.6,3.1
	c0.4,3.3,3.6,5.8,7.4,5.8c3.6,0,10.4,3.4,11.7,6c0.6,1.2,3.2,2.6,6.4,3.5c2.9,0.9,6.4,2.7,7.7,4c1.3,1.4,3.3,2.5,4.5,2.5
	c1.2,0,3,0.7,4.1,1.5c2.8,2.1,4.7,1.9,4-0.4c-0.3-1.1-0.2-2.2,0.4-2.5c1.3-0.8,9.1,3.2,9.1,4.6c0,0.6,0.7,1.9,1.6,2.9
	c1.9,2.1,1.1,3.9-1.7,3.9c-3,0-1.7,2.4,1.5,2.8c2.1,0.3,2.7-0.1,2.7-1.8c0-1.7,0.6-2.1,3.3-2.1c2,0,4,0.8,5,1.8
	c1.3,1.4,7.1,36,24.1,142.2c12.3,77.2,26.9,168.3,32.4,202.4s10.7,66.3,11.5,71.5c0.8,5.2,3.1,18.5,5,29.5s4.2,25.4,5.1,32
	c0.9,6.6,2.1,13.9,2.6,16.2c0.5,2.3,5,29.8,10,61c5,31.2,9.7,61.1,10.6,66.3c0.8,5.2,4,25,7,44c3,19,7.2,45.5,9.4,59
	c2.2,13.5,5.8,36.4,8,51c6.3,41.5,5.7,38.7,9.9,41.5c5.4,3.7,12,3.4,22.6-1c5.9-2.4,10-3.5,13.5-3.5c4.3,0,5.6-0.5,8.8-3.2
	c4.6-4,7.7-5.8,10-5.8c1,0,3.6-0.9,5.7-2c2.2-1.1,5.6-2,7.6-2c2,0,4.2-0.7,4.9-1.5c1.6-1.9,5.4-1.9,6.9-0.1c0.7,0.8,2.5,1.7,4.2,2.1
	c2.8,0.6,2.9,0.9,2.3,3.8c-0.4,1.7-1.3,4.7-2.1,6.5c-0.8,1.9-1.4,4.1-1.4,4.9c0,2.7,10.8,14,13.9,14.7c1.6,0.4,3.4,1.3,4.1,2.1
	c0.7,0.8,2,1.4,3,1.4c1,0,3.1,1.6,4.6,3.6c7.6,9.5,20,20.3,25.2,21.9c1.3,0.4,4,2.2,6,4c4.9,4.4,11.7,8.5,13.9,8.5
	c1,0,2.9,1.1,4.2,2.5s2.8,2.5,3.4,2.5c0.6,0,2.3,1,3.7,2.2c2.6,2.2,4.9,10,4.9,16.5c0,1.3,0.9,3.7,2.1,5.3c3.8,5.3,3.7,5.4,24-18.3
	c3.3-3.9,4.7-4.8,7.4-4.8c2.6,0,3.8-0.7,5.4-2.9c1.9-2.6,2.1-4.4,2.1-17.2c0-13.6,0.1-14.4,2.4-17.5c1.3-1.8,2.7-4.3,3.1-5.6
	c0.3-1.3,4.8-6.9,10-12.3l9.4-9.8l7.3,0.5c7.4,0.5,14.4,3.3,19.3,7.7c1.1,1,2.7,2,3.6,2.3c2.4,0.8,6.9,10.5,6.9,14.8
	c0,5.7,3.4,9.2,10.6,10.8c6.9,1.6,14.1,5.1,16.9,8.1c1.1,1.2,3.7,3.1,5.7,4.1c4,2.1,6.2,5.4,7.3,11.1c0.9,4.7,4.8,8.3,10.5,9.8
	c2.5,0.6,5.6,1.5,7,2s5.1,1.4,8.3,2.1c5.2,1.1,6.3,1.9,10.8,7.1c3.2,3.7,5.8,5.8,7.2,5.9c3.5,0.1,10.1,5.2,10.6,8.3
	c0.3,1.7,1.7,3.5,3.7,4.6c1.8,1.1,4.8,4.4,6.7,7.5c1.9,3,4.5,6.1,5.6,6.8c1.1,0.7,3.2,3.9,4.7,7c2.5,5.6,7.6,10.8,10.6,10.8
	c1.3,0,6.9,6,10.7,11.5c0.8,1.2,4.6,4.8,8.3,7.9c3.7,3.2,7.9,7.5,9.3,9.7s3.5,4.3,4.7,4.8s4.1,2.9,6.4,5.5c2.3,2.5,4.6,4.6,5.2,4.6
	c0.5,0,2.2,2.1,3.7,4.8c1.5,2.6,4.1,6.3,5.7,8.2c2.7,3.3,6.2,8.1,12.3,17.2c1.4,2.1,3.3,3.8,4.4,3.8c1.1,0,3.7,2.3,6.1,5.5
	c5.4,7,9.7,9,21.8,9.9c5.3,0.4,11.5,1.6,14.3,2.7c2.7,1.1,7,2,9.4,2s4.6,0.4,4.9,0.9c0.3,0.5,2.6,1.1,5.1,1.5
	c2.5,0.3,7.9,2.2,12,4.1c4.1,1.9,7.9,3.5,8.3,3.5c0.4,0,3.1,1.1,6,2.5c4,1.9,5.7,2.3,7.1,1.5c5.6-3,13.8,0.2,18.8,7.4
	c3.3,4.8,3.4,5.2,2.6,11c-1.6,12.5-0.7,16.1,7.7,31.2c1.1,1.9,1.9,3.8,1.9,4.4c0,0.5,1.4,3.3,3.1,6.2l3.1,5.3l-0.7,16.3
	c-0.6,14-1,16.6-2.6,18.2c-1,1-2.2,3.9-2.5,6.4c-0.4,2.5-1.9,6.3-3.5,8.4c-4.1,5.7-11.6,13.1-13.2,13.1c-1.8,0-5.4-3.9-10-11
	c-4.4-6.6-5.2-9.6-3.9-14.4c0.9-3.4,0-5.9-1.3-3.6c-1,1.6-4.1,1.2-6-0.9c-2.6-2.9-1.3-8.7,2.8-12.2c1.7-1.5,4.9-4.3,7.1-6.1
	c2.5-2.1,3.6-3.8,3.1-4.6c-0.6-0.9-1.4-0.7-3.1,0.9c-3.1,2.9-6.4,2.2-9.3-2c-1.9-2.8-2.3-4.6-2.1-9.5c0.2-6.6-2.5-13.7-5.7-14.9
	c-2.5-1-2.8,0-1.6,4.3c0.6,2.1,1.2,5.5,1.2,7.4c0,2,0.4,3.9,1,4.2c1.3,0.8,1.3,24.5,0,27.9c-1.2,3.2-5.4,3.5-7.3,0.6
	c-1.6-2.5-3-2.5-5.3,0c-1.8,2-1.8,2.1,1.9,5.9c3.4,3.5,3.7,4.2,3.4,8.7c-0.3,4.5-0.5,4.9-3,5.2c-1.5,0.2-3.4,1.4-4.3,2.8
	c-1.2,1.8-2.4,2.4-4.3,2.2l-2.7-0.3l0.3-10.5c0.2-7.3,0.7-10.8,1.7-11.6c0.9-0.7,1-1.5,0.4-2.5c-1.5-2.4-1.1-3.7,2.3-7.5
	c2.6-2.9,3.2-4.5,3.2-8.3c0-3.6-0.3-4.7-1.7-5c-1.5-0.3-1.8,0.4-1.8,4.2c0,5.5-1.4,6.6-4.5,3.7c-1.6-1.5-2.5-1.8-3-1
	c-0.4,0.6-0.2,1.7,0.4,2.3c1.9,1.9,1.4,8.5-0.8,9.7c-1.5,0.8-2.1,2.6-2.6,8.5c-0.6,6.5-1,7.5-2.6,7.5c-1.1,0-3-1.7-4.6-4.2
	c-1.5-2.3-4-5.6-5.5-7.2c-1.9-2-2.7-3.8-2.5-5.5c0.3-2.3,0.7-2.5,4.5-2.4c2.3,0.1,4.2-0.1,4.2-0.5c0-0.4-1.4-2.1-3.1-3.8
	c-3-3.1-3-3.3-1.9-7.5c1.2-4.3,0.3-11.5-2.1-17.6c-0.5-1.2-0.6-2.9-0.3-3.8c0.4-0.9-0.5-2.5-2-4c-1.4-1.3-2.6-3.1-2.6-3.9
	c0-1.8,3-3.6,6-3.6c1.5,0,2.6-1.1,3.6-3.5c1.4-3.2,8.4-9.5,10.7-9.5c1.2,0,8.4,6,14.6,12.2c4.5,4.6,7.1,5.9,7.1,3.7
	c0-1.7-12.1-14.4-15.7-16.3c-2.3-1.3-3.3-2.6-3.3-4.2c0-3.4-2-3-6,1.1c-1.9,1.9-4.2,3.5-5.3,3.5c-2.1,0-5.9,3.6-12.4,11.9
	c-4,5.1-4.2,5.5-2.9,8c0.8,1.4,2.1,5.7,3,9.4c1.6,6.6,1.5,6.9-0.5,9.4c-1.7,2.1-1.9,3.5-1.4,6.9c0.5,3.5,0.3,4.4-1,4.9
	c-0.9,0.3-2.4,0-3.3-0.7c-0.9-0.7-3-1.8-4.7-2.4c-6.4-2.1-10.2-14.9-5.5-19.1c1.7-1.6,2-2.6,1.4-5.9c-0.8-4.8-0.9-6.3-0.6-13.5
	c0.1-3-0.3-7.6-1-10.2c-1-3.7-1-5.3,0-7.4c1.1-2.4,1.6-2.6,5.4-2c4,0.6,4.4,0.4,7.1-3c3-3.8,2.8-5.7-0.4-3.7
	c-1.1,0.7-4.6,1.2-7.9,1.2c-4.7,0-6.5-0.5-8.8-2.3c-3.3-2.7-14.2-8.7-15.9-8.7c-1.9,0-7-2.8-9-5c-1.7-1.8-1.7-2.5-0.6-6.6
	c1.6-5.9,0.9-6.7-4.3-5.9c-4.8,0.7-6.2-0.3-4.3-3.4c1-1.6,1-2.3,0-3.3c-1-1-1.9-0.9-4.3,0.5c-4.9,2.8-8.2,2.2-13.4-2.3
	c-2.5-2.2-5.2-4-5.9-4c-2,0-4.6-3.4-4.6-6.1c0-2.1-0.7-2.7-5.1-3.9c-2.8-0.8-5.5-2.2-6-3.2c-1.2-2.2-2.7-2.3-5-0.2
	c-4.2,3.8-16.9-2.6-16.9-8.5c0-2.4,3.3-6.1,5.5-6.1c2,0,8.5-3.2,8.5-4.2c0-1.3-1.7-0.9-3,0.7c-0.8,0.9-2.5,1.4-4.4,1.2
	c-2.4-0.2-3.5-1.1-4.8-3.8c-0.9-1.9-3.1-5-4.8-6.7c-1.7-1.8-3-3.9-3-4.7c0-2.2-1.7-2.8-4.1-1.5c-1.9,1-2.5,0.8-4.4-1.7
	c-1.3-1.6-2.6-4.9-3-7.3c-0.6-3.8-0.4-4.7,1.5-6.2c3-2.4,1.8-3.7-2.8-3.1c-3.6,0.5-4.1,0.2-7.6-4c-2.9-3.6-3.7-5.3-3.4-7.8
	c0.2-2.5,0.9-3.4,2.8-3.9c2-0.5,2.5-1.2,2.5-3.5c0-2.3-0.5-3-2.2-3.3c-1.8-0.3-2.2,0.2-2.2,2.1c0,3.2-1.8,4.8-5.6,4.8
	c-2.5,0-4.1-1-7.8-5l-4.6-5v-15.5c0-9.2,0.4-15.7,1-16.1c1.5-0.9,1.2-3.5-0.4-3.5c-2.3,0-5.4,5.3-6.1,10.6
	c-0.5,3.8-0.2,6.2,1.4,10.2c3.4,8.7,2.4,12-2.7,8.4c-5.4-3.8-11.9-6.1-18.6-6.8l-6.8-0.6l-9.9-9.8l-9.9-9.8l-0.5-6.3
	c-0.5-7.3-1.9-9.5-3.4-5.5c-0.8,2.2-1.6,2.7-3.7,2.4c-1.5-0.2-3-1-3.4-1.8c-2-3.9-4.9-15.5-4.9-19.3c0-4-0.4-4.6-7.1-10.7
	c-5.3-4.9-7.3-7.4-7.8-10c-0.9-4.5-4.4-5-4.9-0.7c-0.4,3.4,3.4,15.1,5.4,16.8c0.8,0.7,1.4,1.7,1.4,2.4c0,0.7,1.4,2.5,3,4.1
	c1.7,1.6,3,3.9,3,5.2c0,1.3,1.3,3.8,2.9,5.6s4.1,5.5,5.5,8.3c1.5,2.8,4.7,7.4,7.2,10.4c2.9,3.4,4.4,6.1,4.3,7.5
	c-0.2,1.2,0.5,3.3,1.4,4.6c0.9,1.4,1.7,3,1.7,3.6c0,0.6,0.7,1.7,1.5,2.4s1.5,2.3,1.5,3.5s0.8,3.3,1.9,4.6c1.9,2.4,3.2,6.4,3.5,10.9
	c0.2,2.4-0.1,2.5-5.4,2.8c-4.1,0.2-5.9-0.1-6.9-1.2c-0.7-0.8-1.9-1.5-2.6-1.5c-0.8,0-2-1.6-2.8-3.5c-1.2-2.8-2-3.5-4.3-3.5
	c-2.3,0-3,0.6-3.8,3.2c-0.7,2.5-1.5,3.2-3.4,3.2c-1.8,0-2.6-0.7-3-2.5c-0.5-2.1-1.3-2.6-5-3c-3.7-0.4-4.7-1-5.9-3.4
	c-0.8-1.6-1.6-4.8-1.9-7.1c-0.4-3.3-1.7-5.6-6.3-11.1c-7.1-8.4-7.4-10.5-2-16.1c2.2-2.3,3.7-4.4,3.3-4.7c-1-1-5.2-0.7-7.3,0.6
	c-2.3,1.5-3.9,0.2-6.9-5.2c-2.7-5-4.4-5.1-3.6-0.3c0.4,2.3,2,5.3,4,7.4c4.7,5,5.1,7.2,1.9,10.9c-3.4,4-8,4.3-9.4,0.6
	c-0.7-1.9-1.7-2.5-3.8-2.5c-2.9,0-7.2-3.5-7.2-5.8c0-0.7-0.9-1.2-2-1.2c-1.2,0-2.4-1-3-2.5c-1.6-4.1-3.3-3.1-2.5,1.5
	c0.9,5.3-1.1,6-6.9,2.6c-2.4-1.4-4.7-2.6-5-2.6c-0.3,0-0.6,1.2-0.6,2.8c0,1.7-0.8,3.2-2,4c-2.3,1.4-2.7,5.2-0.6,5.2
	c0.8,0,1.7-1.1,2-2.5c0.6-2.3,1-2.5,7-2.5c6.6,0,8.9,1.2,12.6,6.8c1,1.5,3.1,2.5,6.2,3.1c7.3,1.3,10.1,4.8,5.8,7.1
	c-2.3,1.2-2.7,3-0.7,3c0.7,0,1.8-1.1,2.5-2.5c1.8-3.9,5.8-4.3,9.3-1c1.6,1.5,2.9,3.7,2.9,4.8c0,1.1,2.2,4.3,5,7.3
	c5.7,6,6.2,8.4,2.3,11.4c-4.4,3.4-6.9,3.6-10.4,0.7c-3.4-2.9-4.5-3.2-5.6-1.4c-0.4,0.7,0.6,2.3,2.6,4c4.5,3.7,3,5.3-5.1,5.3l-5.9,0
	l2.7,2.8c2.2,2.2,2.5,3.2,1.6,4.5c-1.9,3-4.9,2.6-8.1-1.2c-4.1-4.9-11.6-8.6-17.8-8.6c-2.8,0-5.9-0.7-6.9-1.5
	c-1.1-0.8-2.9-1.5-4.1-1.5s-3-0.9-4-2s-4-2.7-6.7-3.5c-3-0.9-6.8-3.2-9.7-5.8c-2.7-2.4-6.8-4.9-9.2-5.6c-5.6-1.6-8.9-4.7-8.9-8.2
	c0-2.1-1.4-4-5.8-7.9c-7.2-6.4-13.4-9.7-20.4-10.6c-3.8-0.5-6.6-1.6-9.4-3.8c-5.5-4.3-8.1-5.6-10.8-5.6c-1.3,0-2.8-0.5-3.4-1.1
	c-0.6-0.6-3-1.3-5.3-1.4c-2.3-0.2-4.9-0.9-5.8-1.7c-0.9-0.8-5.6-2.6-10.4-4.2c-5.6-1.8-9.9-3.8-11.9-5.7c-2.9-2.7-3.1-3.3-2.5-7.7
	c1.8-13.3,1.8-16.3,0-18.3c-1.5-1.6-1.6-3.2-1.2-9.6c0.7-8.8,2-11.1,4.5-7.5c0.9,1.3,3.1,3.8,4.9,5.4c1.8,1.7,3.2,3.9,3.2,4.9
	c0,2.6,1.2,2.3,4.4-1.1c3.2-3.4,2.9-4.6-1.5-5.4c-2-0.4-4.9-2.5-7.8-5.6c-4.9-5.3-8.3-6.4-10-3.3c-0.5,1-1.5,4.6-2.2,8.2
	c-1.5,7.7-3.9,11.9-9.9,17.9c-7.4,7.3-11.1,9.2-17.9,9.2c-3.3,0-6.2,0.5-6.6,1c-1.4,2.2-14.7-0.3-18.5-3.6c-1.3-1.1-6.2-2-15.5-2.7
	c-3.5-0.3-5.1-1.2-6.5-3.7c-0.8-1.4-0.3-2.7,2-5.6c3.3-4.1,3.7-6.2,1.7-8.9c-1.9-2.6-5.4-1.2-7.1,2.9c-0.8,1.8-3,4.3-5.1,5.6
	c-4,2.5-5.3,2.2-10.7-2.1c-2.5-2-3-2.1-11.2-0.9c-4.7,0.7-9.1,0.9-9.8,0.4c-0.7-0.4-2.6-0.9-4.3-1c-1.7-0.1-5.3-0.5-8.1-0.9
	c-4.8-0.7-15.1,1.3-17.9,3.5c-0.6,0.4-5.5,1.6-11,2.6c-5.5,1-12.2,2.8-14.9,4.1c-6.5,3.1-23.4,5.3-27.2,3.5
	c-3.1-1.4-2.8-3.4,0.5-4.2c3.3-0.8,3.6-2.6,0.7-4.5c-2.3-1.5-2.4-2-1.9-8.5c0.5-6.5,0.4-7-2.1-8.5c-2-1.3-3-1.4-4.7-0.5
	c-2.9,1.6-2.3,5.2,1,6c3.1,0.7,3.8,4.1,1.6,7.6c-1.9,2.9-5.3,3.2-9.6,0.9c-1.6-0.8-3.4-1.3-3.9-1c-0.5,0.3-3.6-1.8-7-4.6
	c-4.3-3.7-6.1-5.8-6.1-7.6c0-3.7,1.7-6.1,5-6.8c3.1-0.7,4.2-2.5,1.5-2.5c-1.6,0-2.4-1.6-4.5-8.8c-0.7-2.3-1.6-4.2-1.9-4.2
	c-1.2,0-3.5,3.2-8.5,11.8c-5.6,9.7-7.4,11.2-13.2,11.2c-3.7,0-4.9-0.6-8.3-4c-3.9-3.9-4.2-4-10.2-3.8l-6.2,0.3l0.3-3.2
	c0.3-4.3-1.2-4.2-7.1,0.2c-4.9,3.8-7.7,4.4-9.7,2c-1.7-2-0.5-4.5,2.1-4.5c1.2,0,3.2-1.1,4.5-2.5c1.3-1.4,3.4-2.5,4.8-2.5
	c1.4,0,2.7-0.4,3-0.9c0.4-0.7-1.1-6.5-2.1-8.1c-0.2-0.2-1.6,0.8-3.2,2.3c-3.6,3.4-6.5,3.1-6.9-0.7c-0.3-2.7-3.3-6.7-4.9-6.6
	c-0.4,0-1.7,1.5-2.8,3.2c-1.6,2.6-2.8,3.3-5.8,3.5c-7.6,0.6-8.7-3.5-2.4-9l4.3-3.7l-3.8,0c-3,0-4-0.5-4.6-2.3
	c-0.5-1.3-1.6-2.9-2.4-3.5c-2-1.6-2-9.8,0-10.6c0.8-0.3,1.1-1,0.8-1.5c-0.3-0.6-2.9,1.2-5.7,4c-4.8,4.7-7.5,6-9.2,4.3
	c-0.4-0.4-3-0.8-5.7-0.8c-4.7-0.1-5,0.1-5.5,2.7c-0.3,1.6-1.2,3.3-1.9,4c-1.9,1.6-4.4,0.4-4.4-2.1c0-1.3-1-2.4-2.5-3
	c-2.3-0.9-2.5-1.4-1.9-4.5c0.4-2.3,0.3-3.5-0.4-3.5c-1.3,0-2,2.8-2.4,9.5c-0.2,4.4-0.6,5.2-3.1,6.4c-2.1,1-2.5,1.7-1.8,2.5
	c0.6,0.6,1.1,1.9,1.1,2.9c0,1.4-0.8,1.8-3.3,1.8c-2.3,0-4.1,0.8-5.7,2.5c-1.6,1.7-3.2,2.4-4.9,2.2c-2.3-0.3-2.6-0.8-2.8-5.2
	c-0.3-4.3,0.2-5.6,3.2-10.1c2.2-3.2,3.6-6.3,3.6-8.3c0-4.1,1.7-8,5.3-11.9c2.1-2.3,2.8-3.9,2.6-6c-0.6-4.9-3.3-4.1-7.3,2.1
	c-2.9,4.5-3.6,6.6-3.6,10.6c0,4.3-0.3,5-1.9,5c-1.7,0-1.9,0.5-1.4,3.5c0.4,2.8,0,4.1-2.1,6.6c-1.4,1.7-2.6,3.6-2.6,4.2
	c0,0.6-1,2.2-2.2,3.5c-1.7,1.9-2.1,3.3-1.9,7.1c0.3,5.6,0.7,6.2,2.4,3.8c0.9-1.2,2.3-1.7,4.7-1.4c3.2,0.3,3.5,0.6,3.8,3.9
	c0.2,2.7-0.3,4.4-2.4,6.8c-2.5,3-2.7,5.8-0.2,3.3c1.9-1.9,4.2-1.4,7.1,1.6c2.2,2.3,2.7,3.8,2.7,7.6c0,4.2,0.2,4.7,1.5,3.6
	c0.8-0.7,1.5-2.4,1.5-3.9c0-1.5,1.5-4.3,3.5-6.6c3.4-3.9,3.5-4,5-2c1.1,1.4,1.4,3.4,1.1,6.2c-0.3,2.8,0,4.6,0.9,5.4
	c1.8,1.5,1.8,5.9,0,8.4c-0.8,1.1-1.7,4-2.1,6.5c-0.9,5.4-2,7-4.9,7c-2.8,0-4.6-1.8-4.6-4.6c0-1.2-0.4-2.5-1-2.9
	c-0.5-0.3-1-2.8-1-5.6c0-2.7-0.4-4.9-0.8-4.9c-1.2,0-7,7.4-8.1,10.4c-0.5,1.4-1.6,2.6-2.3,2.6c-0.8,0-2.2,0.9-3.2,2.1
	c-1.9,2-1.8,2.1,0.6,1.8c11.8-1.1,17.7,1.5,16.6,7.2c-0.5,2.6-0.3,2.9,1.9,2.9c4,0,4.1,2.7,0.4,6.6c-2.2,2.3-3.9,3.3-5.1,2.9
	c-1-0.3-3.1,0.2-4.7,1.2c-2.5,1.4-3.4,1.5-5.6,0.6c-2.1-1-2.5-1.6-1.9-3.4c2.3-7-1-8.6-4.1-2.1c-2.6,5.4-3.1,5.9-5,4.4
	c-1.3-1-1.7-0.9-2.4,1.1c-0.5,1.3-1.8,3.1-2.8,4.1c-1.9,1.7-2,1.6-4.1-1.2c-1.6-2.2-2.9-2.9-4.9-2.8c-7.6,0.5-10.3-0.1-11.3-2.8
	c-1.5-3.8-3.4-2.4-3.8,2.8c-0.3,4.7-3.1,8.6-5.1,7.3c-0.6-0.4-1.1-2.7-1.1-5.2c0-3.7-0.3-4.5-1.7-4.2c-2.8,0.5-5.5,6.9-6.5,15.3
	c-1,8.2-2.5,11.2-5.2,10.2c-1.1-0.4-1.6-2.3-1.8-6.3c-0.2-3.2-0.8-5.9-1.5-6.1c-0.8-0.3-1.2,2-1.1,7.7c0,4.5-0.2,8.4-0.5,8.7
	c-1.1,1.1-3.7-0.6-3.7-2.5c0-1.1-0.6-2.2-1.4-2.5c-1-0.4-1.8,0.7-2.8,3.6c-1,3.1-1.9,4.3-3.6,4.5c-1.5,0.2-2.2,1-2.2,2.4
	c0,3.3-4.8,10.8-6.9,10.8c-3,0-4.2-2.4-3.5-6.9c0.5-3.3,0.4-4.1-0.8-4.1c-0.9,0-2,1.8-2.8,4.8c-0.7,2.6-1.6,5.2-2.1,5.7
	c-1.3,1.4-3.9-1.3-3.9-4c0-1.3-0.5-2.4-1.1-2.4c-0.7,0-0.8,1.6-0.4,4.5c0.6,4.1,0.4,4.7-2.4,7.5c-1.7,1.7-3.7,3-4.5,3
	c-1.9,0-6.7,6.3-8.3,10.9c-1.4,4.1-3.8,4.8-4.2,1.3c-0.4-2.5-0.8-2.8-6.4-3.5c-2.8-0.4-3.8-0.2-3.8,0.9c0,0.8,0.9,1.4,2.1,1.4
	c1.4,0,2,0.5,1.7,1.8c-0.3,1.5-1.3,1.7-6.8,1.4c-6.3-0.3-6.6-0.2-9.9,3.2c-3.8,3.9-5.2,4.3-7.1,2.1c-0.7-0.8-2.1-1.5-3.2-1.5
	c-1.9,0-6.2-2.6-10.6-6.4c-3.8-3.3-2.2-10.6,2.3-10.6c0.8,0,1.4-0.8,1.4-1.8c0-2.4,1.9-4.2,4.6-4.2c1.2,0,2.5-0.5,2.9-1
	c0.4-0.6,2.4-0.8,5.1-0.4c4.8,0.7,8.4-1.2,8.4-4.6c0-2.5,3.9-7,6-7c1,0,2.7-1.2,3.6-2.8c0.9-1.5,3.2-5.1,5.1-8.1
	c1.9-2.9,3.2-5.5,2.9-5.8c-0.3-0.3-3.2,1.8-6.6,4.6c-3.3,2.8-6.5,5.1-6.9,5.1s-1.9,1.1-3.2,2.5c-3.1,3.3-6.5,3.2-11.9-0.2
	c-4.9-3.2-9.1-10.3-9.1-15.6c0-1.9,1.1-5.4,2.5-7.8c1.4-2.4,2.5-5.1,2.5-5.9c0-0.9,1.4-2.8,3-4.4c5.4-5.1,8.2-10.2,10.5-19.2
	c1.3-4.9,3-10.6,3.9-12.8c2.2-5.7,2-9.4-0.9-15.3c-1.4-2.9-2.5-5.7-2.5-6.4c0.1-4.7,7.6-10.8,13.3-10.8c3.2,0,4.5-0.6,7.3-3.7
	c1.9-2,3.4-4,3.4-4.4c0-1.4,15.4-12.2,18.8-13.1c3-0.8,3.8-0.7,5.1,0.9c1.7,2.1,9.5,8.4,10.4,8.4c0.3,0,2.2-1.1,4.2-2.5
	c4.3-2.9,6.7-3.1,13.5-0.9c2.7,0.9,5.2,1.4,5.6,1.1c0.8-0.8-5.7-4.7-7.7-4.7c-0.9,0-2.6-1.1-3.9-2.5c-1.3-1.4-3.1-2.5-3.9-2.5
	c-0.9,0-2.7-0.9-4.1-2s-3-2-3.7-2c-0.7,0-1.6-0.8-2.2-1.8c-0.9-1.6-1.2-1.6-3.5,0.6c-1.5,1.4-3.2,2.1-4.1,1.8
	c-4.2-1.6,1.1-9.3,5.7-8.1c1.8,0.4,2.7,0.2,3.1-1c0.3-0.9,2.3-2.3,4.3-3.1c4.3-1.8,10.4-6.4,10.3-7.9c0-0.5,1.2-3.6,2.8-6.8
	c2.4-5.1,3.2-5.9,6.8-6.9c2.2-0.6,4.9-1.5,6-1.9s3.5-1.1,5.2-1.5c1.8-0.4,3.2-1.1,3.2-1.6c0-1.4-6.5-1.1-11.7,0.7
	c-4.5,1.5-12.3,7.7-12.3,9.8c0,0.5-1.3,2.1-3,3.5c-1.6,1.4-3.8,4.1-4.8,6.1c-2.8,5.1-10,8.4-17.1,7.7c-7.7-0.8-9.5-2.7-8.7-9.7
	c0.3-3,0.9-8.4,1.2-12s1-6.9,1.5-7.5c1.2-1.2,1.2-5.3,0.1-6c-2.8-1.8-6.2,10.1-6.1,22.1c0,3.7-4.7,13.3-6.5,13.3
	c-0.7,0-1.8,0.7-2.5,1.5s-2,1.5-3,1.5c-1,0-4.4,2.8-7.6,6.3c-4,4.3-8.3,7.6-13.2,10.2c-8.3,4.3-13.1,8.6-13.3,11.8
	c-0.1,1.2,0,4.3,0.1,7c0.3,5.6-1.1,7.7-5.1,7.7c-4.2,0-6.8,1.7-6.8,4.4c0,1.6-2,4.1-6.6,8.1c-6.4,5.6-6.6,5.9-6,9.6
	c0.5,3.4,0.1,4.6-4.5,11.3l-5.1,7.5h-6.4c-5,0-6.4,0.3-6.4,1.5c0,0.9,1.7,2,4.5,2.7c2.7,0.7,5.1,2.1,6,3.5c1.3,2.1,1.3,2.6-0.2,5
	c-6.1,9.7-11.7,14.1-19.9,15.6c-3.7,0.7-6.9,1.7-7.1,2.2c-0.2,0.5,1,1.8,2.7,2.8c4.3,2.5,4.1,6.3-0.7,10.8c-4.9,4.7-7.1,5.7-11,5.1
	c-3-0.5-3.2-0.8-3.2-4.4c0-3.8-1.4-5-3.5-3c-0.5,0.5-2.1,1.1-3.5,1.2c-1.9,0.3-2.6,1-2.8,3.1c-0.2,1.5,0.2,3.5,0.9,4.2
	c1.7,2.1,0.4,4.5-2.4,4.5c-3.7,0-5.3,2.5-3.6,5.6c1.3,2.4,1.2,2.7-1.1,4.5c-1.4,1-3.2,2.6-4.1,3.4c-0.9,0.9-3.3,2-5.2,2.6
	c-2.7,0.7-3.8,1.7-4.3,3.7c-0.4,1.5-1.3,3.6-2,4.7c-0.7,1.1-1.4,2.8-1.4,3.7s-1.6,3.5-3.5,5.6c-3.5,3.9-4.4,6.1-2.5,6.1
	c0.6,0,1.4,1,1.9,2.2c0.8,2.1,1.3,2.2,11.8,2.2h11l3.5,3.8c1.9,2.1,4.2,3.8,4.9,3.8s3.1,1.1,5.1,2.5c3.4,2.3,3.7,3,3.7,7
	c0,2.5-0.4,5.3-0.8,6.2c-0.5,1-1.5,3-2.2,4.6c-0.8,1.6-2.8,3.6-4.4,4.5c-1.7,0.9-4.9,2.9-7.2,4.4c-2.3,1.5-5.5,2.7-7,2.7
	c-5,0-6.5,1.9-10.2,13.6c-2.7,8.5-3.1,9-7.9,9.8c-5.1,0.8-7.2,3.1-3.6,4c2.1,0.5,2.5,1.2,2.5,3.9c0,4.3-3.2,10.9-6.6,13.6
	c-2.5,2-2.8,2-5.5,0.4c-3.2-1.9-5.6-0.8-6.1,3c-0.3,1.8-1.1,2.2-4.3,2.5c-2.2,0.2-4.9,0.7-6,1.2s-4,1.2-6.4,1.5
	c-6.2,0.9-7.8,2-10.6,7.3c-1.3,2.6-3.8,5.6-5.5,6.7c-1.7,1.1-4,3.5-5.1,5.3l-1.9,3.3l-3.6-1.5c-5.2-2.2-6.4-2-6.4,1.2
	c0,3.3-0.8,4.6-3.7,6.1c-1.7,0.9-2.2,2.1-2.2,4.6c0,3.7-2.8,6.5-6.6,6.5c-1.2,0-3.3,0.9-4.7,2c-1.4,1.1-4,2-5.7,2
	c-1.8,0-4.5,1.1-6.4,2.5c-1.8,1.4-3.7,2.5-4.3,2.5s-2,1.1-3.2,2.4l-2.3,2.4l2.2,3c1.6,2.2,2,3.4,1.2,4.7c-0.6,1.1-0.6,2.9,0.1,5.2
	c1,3.3,0.9,3.6-2.4,6.4c-5,4.2-10.5,6.9-14.7,7.2c-3.3,0.2-3.8,0.6-4.2,3.2c-0.4,2.4-1.1,3.1-3.5,3.3c-2.8,0.3-8.1,4.2-15,11.2
	c-1.7,1.6-3.7,3-4.5,3c-0.8,0-3.1-1.6-5.2-3.6c-4.5-4.4-6.9-4-6.9,1c0,1.9-0.7,4-1.5,4.7c-2.2,1.8-1.8,3.6,1.2,5.8
	c3.7,2.7,2.5,4.9-3,5.8c-5.8,0.9-8.3,0-10.2-3.6c-0.8-1.6-1.7-2.9-2-2.9c-0.2,0-2.5,1.4-5,3.2l-4.5,3.2l3.1,1.3
	c6.5,2.7,1.1,9.9-5.6,7.3c-1.8-0.7-3.1-0.3-5.6,1.6c-4.1,3-4.1,3-7.7-0.1c-1.6-1.4-3.6-2.5-4.3-2.5c-2.2,0-11.9,12.5-11.9,15.4
	c0,2.2,0.4,2.6,3.1,2.6c2.3,0,4,1,6.6,3.6c4.3,4.6,4.1,7.3-1,9.7c-2.8,1.4-4,2.7-4.4,4.8c-0.6,3.2-4.1,5.5-6.7,4.5
	c-2.2-0.9-1.9-3.6,0.9-9.2c2.7-5.4,2.6-7.4-0.4-7.4c-2.8,0-5.9,4.8-6.8,10.6l-0.8,4.9l-5.2,0.3c-3.2,0.2-5.2,0.8-5.3,1.5
	c0,0.7-1,2.4-2.2,3.8c-1.9,2.2-3.3,2.7-9.3,3.3c-6.2,0.6-7.4,0.4-9.7-1.4c-3.9-3.1-7.4-2.7-9.9,1.2c-1.7,2.8-1.9,4.3-1.4,9.9
	c0.6,6.3,0.4,6.9-2.2,10c-1.5,1.8-3.3,4.2-3.9,5.3c-1.6,2.9-9.9,2.9-9.9,0c0-1.2,1.1-2.5,2.8-3.3c1.8-0.9,2.8-2.1,2.8-3.6
	c0-1.2,0.4-2.7,0.9-3.2c0.5-0.5,1.1-3.3,1.4-6.2c0.6-6.6-0.9-7.7-9.3-6.9c-7.1,0.6-7.9,1.1-7.9,4.6c0,1.7-1.3,4.1-3.5,6.5
	c-3.3,3.6-3.7,3.8-8.9,3.5c-5.3-0.2-5.5-0.2-10.6,4.9c-5.7,5.7-6.6,6.2-5.8,3.1c0.8-2.9-0.2-4.9-2.4-4.9c-2.5,0-3.5,1.8-3.5,6.5
	c0,3.1-0.4,4.1-1.8,4.3c-3.4,0.7-6.6-0.8-8.2-3.8c-2-3.9-3.8-3.8-6.3,0.5c-3.2,5.5-9.1,8-18.2,7.7c-4.1-0.1-8.1-0.7-8.8-1.3
	c-1.9-1.5-0.6-8.3,2.4-13c2.8-4.3,3.7-4.5,8.2-1.7c4.1,2.5,6.2,2.5,6.2,0.2c0-2.9-5.1-7-10.8-8.7c-5.2-1.5-5.2-1.5-8.7,1.1
	c-1.9,1.4-3.7,3.4-3.9,4.3c-0.3,0.9-1.2,5-2.2,9c-1.4,6.1-2.3,7.7-5.1,9.9c-1.8,1.4-3.3,3.1-3.3,3.8c0,0.7-0.9,2-1.9,2.9
	c-1.6,1.4-2.2,1.5-3.9,0.5c-1.1-0.7-2.7-0.9-3.7-0.6c-1.4,0.6-1.6,1.4-1.1,5c0.7,4.7-0.8,7.1-4.1,6.5c-1.3-0.3-1.8-1.3-1.8-3.8
	c-0.1-5-2.5-4.9-7.8,0.5c-4.7,4.7-6.6,5.3-11,3.6c-2.7-1-3.6-5.2-1.4-6.6c0.7-0.4,0.9-2.4,0.6-5.3c-0.6-5.5-3.7-8.8-6.8-7.1
	c-2.6,1.4-2.5,6,0.1,6.7c2.4,0.6,2-0.3,2.6,6.5c0.6,7.1-0.7,9.8-4.7,9.8c-1.6,0-3,0.4-3,0.9c0,1.2-2.9,2.3-4.1,1.5
	c-0.6-0.4-0.5-1.1,0.2-2c1.4-1.7,0.5-4.4-1.3-4.4c-0.7,0-2.4,1.4-3.6,3.1c-1.8,2.4-2.5,2.8-3.7,1.9c-1.1-0.9-1.1-1.6-0.3-3.2
	c2.5-4.7-1.5-11.8-6.6-11.8c-5.1,0-5.7,4.3-1.5,10.1c2.6,3.5,2.8,4.4,1.8,6.6c-1.1,2.4-7.6,6.4-10.4,6.4
	C1231.3,1423.8,1230.9,1422.5,1230.9,1420z M1512.9,1303.8c1.3-0.8,1.3-1-0.2-1c-0.9,0-2,0.4-2.3,1
	C1509.6,1305.1,1510.9,1305.1,1512.9,1303.8z M1538.9,1223.8c0-0.6-0.7-1-1.6-1c-0.9,0-1.3,0.4-0.9,1c0.3,0.5,1,1,1.6,1
	S1538.9,1224.4,1538.9,1223.8z M1614,1204.3c1.4-5.3-0.1-11.3-3.5-14.1c-1.7-1.4-3.8-3.1-4.7-4c-0.9-0.8-2.1-1.5-2.6-1.5
	c-0.6,0-3-0.9-5.4-1.9c-7.9-3.4-19.9-2.8-19.9,1.1c0,4.3,6.9,9.7,15,11.7c8.7,2.2,16.5,5.7,16.8,7.6
	C1610.6,1208.8,1612.7,1209.2,1614,1204.3z M2664.9,1102.9c0-1.4-3.5-3-6.4-3c-2.8,0-3.2,0.9-1.4,2.8
	C2658.5,1104,2664.9,1104.2,2664.9,1102.9z M1510.3,1089.9c1-1.2,3.7-2.6,5.8-3.1c4.4-1.2,4.6-3.3,0.5-3.8c-1.9-0.2-3.4,0.5-5.2,2.5
	c-1.4,1.5-3.5,3.7-4.5,4.8c-1.1,1.1-1.9,2.4-1.9,2.8C1504.9,1094.2,1508.1,1092.3,1510.3,1089.9z M1650.9,1062.4
	c3.6-2.4,6-3.1,13.8-3.8c11.2-1.1,14.1-2.1,14.1-4.6c0-1,0.9-2.7,2-3.7c1.1-1,2-2.6,2-3.6c0-2.1,10-7.4,15.9-8.4
	c4.8-0.8,9.2-4.9,7.3-6.8c-1.3-1.3-11-1.5-23-0.4c-5.9,0.5-6.6,0.8-9.9,4.6c-5.2,6.1-8.3,7.3-19.8,7.8c-5.5,0.2-11.1,0.6-12.3,0.9
	c-3.1,0.6-12.2,9.2-12.2,11.5c0,1-0.4,2.1-1,2.4c-0.5,0.3-1,2.2-1,4.2v3.5l9.8-0.3C1645.6,1065.4,1647,1065,1650.9,1062.4z
	 M1848.4,1030.8c0.3-0.6,0.2-1-0.4-1s-1.3,0.4-1.6,1c-0.3,0.5-0.2,1,0.4,1C1847.3,1031.8,1848,1031.4,1848.4,1030.8z M1957.9,995.8
	c0-0.5-0.2-1-0.4-1s-0.7,0.5-1.1,1c-0.3,0.5-0.1,1,0.4,1C1957.4,996.8,1957.9,996.4,1957.9,995.8z M2355.9,991.3
	c0-1.9-0.4-3.5-1-3.5s-1,1.6-1,3.5s0.4,3.5,1,3.5S2355.9,993.2,2355.9,991.3z M1950.1,971.6c2.3-1.2,6.1-2.2,8.3-2.2
	c3,0,4.1-0.5,4.4-1.7c0.3-1.5-0.6-1.7-6.7-1.4c-7.5,0.3-11.1,2.1-11.1,5.8C1944.9,974.3,1944.9,974.3,1950.1,971.6z M2071,952.8
	c1.6-0.9,1.8-1.4,0.8-2.5c-0.7-0.8-1.8-1.4-2.6-1.4s-2.3-0.5-3.3-1.2c-3.2-2-3.6,0-0.5,3.2C2068.7,954.3,2068.4,954.2,2071,952.8z
	 M2041.9,932.8c0-1.3-2-1.3-4,0c-1.2,0.8-0.9,1,1.2,1C2040.6,933.8,2041.9,933.4,2041.9,932.8z M1960.5,922.2c2.7-0.7,2.7-2.7,0-3.2
	c-1.8-0.3-5.6,2.4-5.6,4.1c0,0.5,0.7,0.7,1.6,0.3S1959.2,922.5,1960.5,922.2z M1304,916.7c2.4-1.2,5-2.5,5.8-2.9
	c3.4-1.7-1.5-13.4-6.7-15.9c-3.9-1.9-4.2-3-0.8-3c3.2,0,3.2-2.3,0-4c-2.3-1.2-2.7-1.1-5.4,1.8c-2.5,2.7-3.7,3.1-7.6,3.1
	c-2.7,0-6.3-0.9-8.7-2.1c-3.4-1.8-4.5-1.9-6.9-0.9c-3.6,1.5-5,0.6-5-3c0-1.8-0.8-3.3-2.3-4.3c-2.9-1.9-8.7-3.2-8.7-1.9
	c0,1.5,2.2,3,5,3.4c1.8,0.2,2.6,1.1,3,2.9c0.6,2.8,5.6,7.7,10.8,10.3c2.9,1.5,3.2,2.1,3.2,6.1c0,4,0.2,4.5,2.3,4.5
	c2.8,0,5.3-2.6,5.8-5.9c0.2-1.4,1.3-2.7,2.6-3.2c1.8-0.6,2.8-0.2,4.8,1.9c2.3,2.5,2.5,3.2,2,8.3C1296.6,919.6,1297.2,920,1304,916.7
	z M1245.4,854.8c2.1-2.3,1.2-3.9-1.3-2.4c-1.9,1.2-2.9,4.4-1.4,4.4C1243.2,856.8,1244.4,855.9,1245.4,854.8z M1505.4,431.2
	c3.1-2.4,4-2.6,10.2-2c3.7,0.3,8.4,0.9,10.5,1.2c3.7,0.6,3.8,0.6,3.8-2.9c0-2.8-0.7-4.1-3.6-6.5c-3.1-2.5-3.4-3.2-2.5-5
	c0.6-1.1,2.1-2.2,3.3-2.4c1.7-0.2,2.3-1,2.3-2.8c0-2.3-0.3-2.5-4.5-2.4c-5.5,0.2-15.9,2.1-18.2,3.4c-2.5,1.4-8.9,1.1-11.8-0.5
	c-1.4-0.8-5-1.4-8.2-1.5c-5.5,0-5.7,0.1-7.9,3.7c-2.1,3.5-2.1,3.8-0.5,4.8c1,0.6,2.9,2,4.4,3.1c1.4,1.1,3.4,2.4,4.4,2.7
	c1,0.4,2.1,1.4,2.4,2.4c1.1,3,6.6,7.2,9.6,7.2C1500.8,433.8,1503.6,432.6,1505.4,431.2z M1336.9,406.8c0-0.6-1.8-1-4-1
	c-2.2,0-4,0.4-4,1c0,0.5,1.8,1,4,1C1335.1,407.8,1336.9,407.4,1336.9,406.8z M1913.1,122.3c5.6-4.4,7.1-6.5,4.5-6.5
	c-0.7,0-2.1,0.7-3.2,1.5c-1.1,0.8-2.7,1.5-3.7,1.5c-1.7,0-4.8,4.6-4.8,7C1905.9,127.6,1907.2,126.9,1913.1,122.3z M1480.7,110.3
	c5.4-6.1,3.7-7.7-1.9-1.7c-2.7,2.9-5,5.8-5,6.3C1473.9,116.5,1477.3,114.2,1480.7,110.3z M1838,105c0.8-2,0.7-2.2-1-1.3
	c-1.5,0.8-2.2,0.5-3.4-1.2c-2.3-3.4-3.2-1.3-1.3,3.3c0.9,2.2,1.6,5.1,1.7,6.3C1834,114.3,1835.1,112.4,1838,105z M1913.9,109.8
	c0.7-1.3,0.7-2,0.1-2c-0.6,0-1.5,0.9-2.1,2c-0.7,1.3-0.7,2-0.1,2C1912.4,111.8,1913.3,110.9,1913.9,109.8z M1842.4,97
	c-0.9-0.9-3.6,1.9-3.5,3.7c0,1.3,0.5,1.1,2-0.8C1842,98.6,1842.7,97.3,1842.4,97z M1761.5,83.2c1.7-0.8,4-1.4,5.1-1.4
	c1.1,0,2.2-0.3,2.6-0.7c1.2-1.2-4.6-6.3-7.1-6.3c-1.3,0-3.8-1.2-5.5-2.6c-2-1.7-3.8-2.4-5.1-2c-1.1,0.3-2.8,0.6-3.8,0.6
	c-2.3,0-1.4,6.3,1.7,11.1c2,3.2,2.7,3.5,5.6,3.2C1756.9,84.8,1759.8,84,1761.5,83.2z M1745.9,83.1c0-1.4-3.5-8.3-4.3-8.3
	c-1.7-0.1-1.8,2.9-0.3,5.9C1742.7,83.4,1745.9,85.1,1745.9,83.1z M1566.4,79.8c0.3-0.6,0.1-1-0.4-1s-1.1,0.4-1.1,1s0.2,1,0.4,1
	S1566,80.4,1566.4,79.8z M1318.3,1418.4c-0.8-2.1,0.3-3.6,2.7-3.6c1.5,0,1.9,0.6,1.7,2.2C1322.3,1419.7,1319.1,1420.7,1318.3,1418.4
	z M1366.8,1416.3c-2.5-1.9-4.2-2.4-6.2-1.9l-2.8,0.6l0.1-6.8c0.1-9.8,1.6-13.2,6.5-14.9c3.7-1.3,4.1-1.2,5.6,0.7
	c1.1,1.4,1.8,1.7,2.3,1c0.4-0.6,1.4-1.1,2.1-1.1c1.6,0,1.9,3.2,0.6,5.8c-0.5,0.9-0.5,5,0,9.1
	C1376.1,1419.2,1373.8,1421.4,1366.8,1416.3z M1298.4,1416.8c-0.9-1.5,1.6-4.3,2.8-3.1c1.1,1.1,0.2,4.1-1.2,4.1
	C1299.4,1417.8,1298.7,1417.4,1298.4,1416.8z M1306.4,1412.9c-5.1-5.3-1.1-8.1,5.9-4c4.1,2.4,4.3,3,1.7,5.2
	C1311.4,1416.5,1309.6,1416.2,1306.4,1412.9z M1328.9,1408.3c-1-1.2-1.1-2.1-0.3-3.2c1.4-2.3,2.7-2.5,4.9-0.8
	c1.6,1.2,1.7,1.8,0.9,3.3C1332.8,1409.9,1330.5,1410.3,1328.9,1408.3z M1379.2,1404.3c-0.9-2.3,1.6-4.6,4.5-4.3
	c2.9,0.3,4.1,3.5,1.9,4.9C1383.6,1406.3,1379.9,1406,1379.2,1404.3z M296.1,1402c-4.3-3.8-4.5-8.6-0.4-12.5
	c3.6-3.4,7.5-3.5,11.6-0.1c3.9,3.3,5.6,6.1,5.6,9.6c0,3.3-2.2,4.7-8.7,5.4C300,1404.8,299,1404.5,296.1,1402z M1314.3,1403.7
	c-1-1.6,1.6-3.9,4.5-3.9c2.8,0,5.1,1.6,5.1,3.6C1323.9,1404.9,1315.2,1405.2,1314.3,1403.7z M1397.2,1403.3
	c-0.3-0.9-0.2-2.1,0.4-2.7c1.6-1.6,4.7-0.5,4.7,1.7C1402.4,1404.9,1398.2,1405.7,1397.2,1403.3z M1391.4,1396.6
	c-5-1.1-6.2-2.2-4.6-4.3c1.5-1.8,8.1-2.1,9.8-0.3c1.6,1.6,1.5,4.5-0.1,5C1395.9,1397.3,1393.6,1397.1,1391.4,1396.6z M1616.1,1384.5
	c-2.8-3-2.7-4.3,0.4-6.3c1.4-0.9,3-2.8,3.5-4.1c0.6-1.5,1.6-2.3,2.6-2.1c2.4,0.5,2.7,3.3,0.8,7.3c-0.9,1.8-1.6,4.3-1.6,5.4
	C1621.9,1387.6,1618.8,1387.5,1616.1,1384.5z M229.4,1380.6c-0.9-1.2-1.6-3.9-1.6-6c0-3.1,0.4-3.8,2-3.8c1.4,0,2.6,1.4,4,4.6
	c1.1,2.5,2,5.2,2,6C235.9,1383.7,231.2,1383.1,229.4,1380.6z M1260.9,1379.3c0-2.2,4.7-4.2,6.2-2.7c1.5,1.5,0.3,2.7-3.5,3.6
	C1261.5,1380.7,1260.9,1380.5,1260.9,1379.3z M1433.3,1373.3c-0.3-0.8,0.5-2.8,1.8-4.4c1.3-1.6,2.8-3.7,3.5-4.8
	c1-1.6,1.3-1.7,2.8-0.5c2.4,2,2,3.6-1.7,7.5C1435.9,1375.1,1434.2,1375.7,1433.3,1373.3z M241.9,1371.9c-1.4-2.7-1.4-2.6,2.4-5.1
	c3.8-2.4,6.2-2.1,9,1c1.7,1.9,1.7,2-1.1,3c-1.6,0.6-3.7,1.5-4.6,2C245,1374.3,243.1,1374,241.9,1371.9z M1244.9,1372.2
	c0-0.9,0.5-1.4,1.2-1.2c1.9,0.6,2.2,2.8,0.4,2.8C1245.6,1373.8,1244.9,1373.1,1244.9,1372.2z M235.9,1364.4
	c-1.4-1.7-1.1-4.7,0.6-5.2c1.9-0.6,5.8,3.2,5.1,5C240.8,1366.2,237.5,1366.3,235.9,1364.4z M1566.9,1357.4c0-4.1,2.4-6.5,4.8-5
	c2.6,1.6,2.6,4.9,0,6.7C1568.2,1361.7,1566.9,1361.2,1566.9,1357.4z M229.4,1356.8c-0.9-1.5,1.3-4,3.7-4c1.4,0,1.9,0.6,1.6,2.2
	C234.4,1357.5,230.6,1358.8,229.4,1356.8z M2758.1,1353c-1-1-3.1-3.5-4.6-5.5c-1.6-2-3.7-3.7-4.7-3.7c-1,0-3.1-1.6-4.6-3.5
	c-1.5-1.9-3.3-3.5-3.8-3.5c-1.7,0-8.5-7.4-8.5-9.2c0-0.9-1.1-2.9-2.4-4.5c-2-2.4-2.3-3.6-1.9-7.6c0.4-3.6,0.9-4.7,2.3-4.7
	c2.2,0,8,6.4,8,8.9c0,2.1,7.6,9.4,8.9,8.6c1.2-0.8,0.1-8.7-1.6-10.6c-1.8-2.1-1.7-4.9,0.2-4.9c2.4,0,7.2,2.8,8.9,5.2
	c3.1,4.5,0.5,14.5-3.5,13.5c-3.4-0.9-2.1,1,6.1,9.2c5.7,5.7,8,8.7,8,10.4C2764.9,1354.9,2761.1,1356,2758.1,1353z M193.9,1350.3
	c-2.8-3-4.1-3.1-6.5-0.5c-2.5,2.8-5.3,2.6-6.1-0.5c-0.8-3.3,0.1-5.5,2.4-5.5c1,0,2.4-0.6,3.1-1.2c0.7-0.7,4-1.5,7.5-1.8
	c6-0.5,6.3-0.6,8-4.2c2.1-4.2,2.7-4.4,6.2-2.1c3,2,3.2,5.4,0.4,8c-1.5,1.4-1.9,2.6-1.5,4.6C208.4,1352.7,198.4,1355.2,193.9,1350.3z
	 M1366.2,1347.3c-0.9-2.4,2.2-5.3,3.9-3.7c0.9,0.9,0.9,1.7,0.2,2.9C1368.8,1348.9,1367,1349.3,1366.2,1347.3z M1564.9,1345.8
	c-0.6-1.1-0.8-3.4-0.4-5.1c0.5-2.3,1.1-2.9,2.8-2.7c3.6,0.5,3.2,9.8-0.4,9.8C1566.3,1347.8,1565.5,1346.9,1564.9,1345.8z
	 M2765.1,1342.9c-1.2-1.6-3.8-3.5-5.8-4.1c-4.8-1.6-4.5-4.7,0.8-7.5c3.3-1.7,3.9-1.8,4.7-0.5c0.5,0.8,1,2.7,1,4.1
	c0,1.4,0.9,3.4,2.1,4.4c2.1,1.9,2.3,5.5,0.4,6.1C2767.8,1345.7,2766.3,1344.5,2765.1,1342.9z M2783.6,1339.6
	c-1.3-1.8-3.9-5.6-5.8-8.5c-3.6-5.6-4.4-6.1-5.3-3.8c-0.7,1.8-7.7,2.1-9.4,0.3c-1.6-1.6-1.5-5.9,0.3-8.1c1.8-2.3,0.9-4.5-2.1-5.7
	c-1.5-0.6-2.4-1.7-2.4-3c0-1.2-0.9-3.3-2-4.7c-1.1-1.4-2-3.4-2-4.5c0-1.1-0.5-1.6-1-1.3c-0.6,0.4-0.7,2.8-0.4,6.1
	c0.6,5,0.5,5.4-1.3,5.4c-1.1,0-2.8-0.9-3.8-2c-2.4-2.7-3.2-2.5-6.5,1c-3,3.3-6,3.2-6-0.1c0-2.2-3.5-3.9-8-3.9c-2,0-4.2-1.2-6.9-3.7
	c-4.5-4.1-5.1-6.7-2-8.3c1.7-0.9,2.5-0.6,4.7,2c2.1,2.4,3.5,3.1,6.5,3.1c3,0,3.8-0.4,3.8-1.9c0-2.4-2.4-4.4-6.9-5.6
	c-4.6-1.3-5.2-4.7-2-10.5c1.7-3,2-4.3,1.1-5.1c-0.8-0.8-2.1-0.3-4.9,2c-6.1,5.1-13.3,4.1-13.3-1.8c0-2.7,3.1-11.7,5.2-15
	c1.1-1.7,0.8-2.4-2-5.3c-1.9-2-3.2-4.4-3.2-5.9c0-1.4-1-4.1-2.3-6c-1.2-1.9-2.8-4.6-3.5-6.1c-1.3-3-4-3.9-2.8-1
	c4.3,10.6,4,12.9-1.7,13.4c-2.4,0.2-3.6,1.1-5,3.8c-5.4,9.9-10,10.3-10.6,1.1c-0.3-5.9,1.6-10.1,4.8-10.1c2.4,0,2.6-1.8,0.2-3.6
	c-2.3-1.7-1-2.8,5-4.4c2.6-0.7,4.8-1.6,4.8-2.1c0-0.5-2.6-0.8-5.8-0.7c-3.2,0.1-6.8-0.4-8-1.1c-2.1-1.1-2.3-1.9-2-7.4l0.3-6.2h8.7
	c4.8,0,9-0.3,9.4-0.8c2.5-2.4,10.4,1.4,10.4,4.9c0,0.6,0.7,1.7,1.6,2.4c1.3,1.1,1.5,2.5,1,7.1c-0.5,5.2-0.4,5.8,1.2,5.8
	c2,0,5.1,3,5.1,4.8c0,0.6,0.4,1.2,1,1.2s1-1.1,1-2.6c0-2,0.8-2.9,3.6-4.1c3.6-1.5,3.7-1.5,7.8,1.6c2.3,1.7,6.4,4.6,9.1,6.5
	c6.5,4.4,8.2,6.3,14.7,16c4.9,7.3,5.7,8,9,8.3c4.1,0.3,7.4,3.3,6.4,5.8c-0.6,1.6-2.5,1.6-6.8-0.1c-1-0.4-1.4,0.5-1.4,3.5
	c0,3.2,0.3,3.9,1.5,3.4c4.8-2,11-0.8,11,2.1c0,0.9,0.7,2.7,1.6,4c1.6,2.4,1.5,2.6-1.5,5.4c-4.9,4.5-3.4,7.1,2.6,4.6
	c2.4-1,3.3-2.1,3.8-4.9c0.7-3.8,2.1-5.4,3.4-3.9c1.3,1.3,1.9,14.3,1,19.4c-0.9,5.1-0.7,5.8,1.4,4.1c1.7-1.5,3.6-0.6,3.6,1.7
	c0,0.9,0.7,2.4,1.6,3.4c1.3,1.4,1.4,2.1,0.4,3.3c-1.4,1.7-0.6,3.6,1.4,3.6c2.3,0,2.8,2,1.1,3.9c-1.5,1.6-1.5,1.9-0.1,3.1
	c1.8,1.5,2,6.1,0.3,7.8c-0.7,0.7-3.3,1.2-5.9,1.2C2786.5,1342.8,2785.7,1342.4,2783.6,1339.6z M2773.9,1321.9c0-0.5-0.7-1.4-1.5-2.1
	c-1.2-1-1.5-1-1.5,0.2c0,0.8,0.3,1.8,0.7,2.1C2772.5,1323.1,2773.9,1323,2773.9,1321.9z M2785.7,1317.9c0.2-0.8-0.1-1.1-0.9-0.9
	c-0.7,0.2-1.5,1-1.8,1.8c-0.2,0.8,0.1,1.1,0.9,0.9C2784.7,1319.4,2785.5,1318.6,2785.7,1317.9z M2761.9,1285.8c0-0.6-0.2-1-0.4-1
	s-0.7,0.4-1.1,1c-0.3,0.5-0.1,1,0.4,1C2761.4,1286.8,2761.9,1286.4,2761.9,1285.8z M2755.6,1278.8c1.4-1.1,3.4-2,4.5-2
	c3.2,0,1.4-2.5-2-2.8c-1.7-0.2-3.6-1-4.3-1.8c-2.5-3-4-1.7-4,3.6C2749.9,1281.5,2751.3,1282.2,2755.6,1278.8z M2855.2,1338.3
	c-1.5-3.8,3.1-11.5,6.8-11.5c2.9,0,2.6,8-0.5,10.8C2858.9,1340.2,2856.1,1340.5,2855.2,1338.3z M1356.9,1337.3
	c-0.9-1.1-1-1.9-0.2-2.7c1.5-1.5,4.4-0.2,4,1.8C1360.3,1338.8,1358.4,1339.2,1356.9,1337.3z M1660.9,1328.3c0-4.2,0.4-4.9,5.5-9.6
	c6.3-5.8,10-8,13-7.6c3,0.4,3.4,5.4,0.6,7.9c-1.1,1.1-2.1,2.3-2.1,2.8c0,0.5-1.7,1.9-3.8,3.1c-2.1,1.2-5.4,3.5-7.4,5.1
	C1661.8,1333.9,1660.9,1333.6,1660.9,1328.3z M2849.9,1331.4c0-0.9,0.4-1.6,1-1.6s1,0.4,1,0.9s-0.4,1.2-1,1.6
	C2850.3,1332.7,2849.9,1332.2,2849.9,1331.4z M1685.6,1322.7c-2.7-1.5-2.1-4.4,1.4-7.4c2.8-2.4,3.7-2.6,7.8-2
	c5.8,0.8,11.6,3.6,11.6,5.5c0,0.8-1.7,2.4-3.7,3.5c-3,1.6-4.1,1.8-5.6,0.8c-1.1-0.7-2.4-0.8-3.3-0.3
	C1691.9,1324.1,1687.8,1324,1685.6,1322.7z M2702.9,1315.4c-2.4-2.9,1.9-11.9,4.9-10.1c1.6,1,1.3,6.8-0.5,9.3
	C2705.5,1317.2,2704.6,1317.4,2702.9,1315.4z M2714.4,1315.9c-0.8-1.3,1-9,2.5-10.4c0.9-0.8,1.8-0.4,3.6,1.7
	c3.1,3.6,4.2,7.6,2.3,8.8C2720.9,1317.1,2715.2,1317.1,2714.4,1315.9z M2824.4,1314.8c-1-1.1-2.9-2-4.2-2c-3.2,0-2.9-1.5,1.1-5.5
	c3.9-3.9,4.6-4.1,8-1.9c3.3,2.1,4.3,7,2,9.5C2829.1,1317.4,2826.7,1317.3,2824.4,1314.8z M1543.9,1309.9c0-2.6,2.6-3.2,11.5-2.9
	c6.2,0.3,7,0.5,7,2.3c0,1.8-0.8,2-9.2,2.3C1544.4,1311.9,1543.9,1311.8,1543.9,1309.9z M1696.2,1307.3c-0.3-0.9-0.2-2.1,0.4-2.7
	c1.6-1.6,4.7-0.5,4.7,1.7C1701.4,1308.9,1697.2,1309.7,1696.2,1307.3z M1695.4,1300.8c-0.6-1,2.7-6.3,9.3-14.7
	c5.3-6.8,6.9-10,3.3-6.8c-2,1.8-4.1,1.4-4.1-0.8c0-0.7,1.6-2.8,3.5-4.6c4-3.9,4.8-6.8,1.4-5c-1.1,0.6-3.9,2.9-6.1,5.1
	s-4.2,3.8-4.5,3.5c-0.3-0.3,0.2-2.2,1.1-4.2c2.1-5,2-5.2-1.4-7c-3.3-1.7-9-2.1-9-0.5c0,0.5,1.4,1,3,1c4,0,5.7,3.4,4.1,8.1
	c-0.6,1.8-1.1,5-1.1,7.1c0,3.9-4,11.8-6,11.8c-0.5,0-1.7-1.4-2.6-3.1s-3.6-6-6.1-9.6l-4.5-6.5l0.7-6.7c0.8-7.9-0.7-11.7-5.9-14.9
	c-1.8-1.1-4-3.2-4.7-4.7c-1.2-2.3-1.2-2.9,0.1-4.9c3.6-5.7,12.3-15.5,13.7-15.5c0.9,0,3.4-1.5,5.7-3.3c2.3-1.8,5.1-3.9,6.3-4.5
	c3.4-1.8,8.8-1.4,11.6,0.9c2.7,2.1,5.3,8.2,4.2,9.9c-0.3,0.5,0.1,2.4,1,4.1c0.9,1.7,1.4,3.8,1.1,4.5c-0.6,1.7-6.7,1.9-8.3,0.3
	c-2.1-2.1-3.5,0.1-1.8,2.7c0.9,1.3,1.6,4.2,1.6,6.4c0,5,1.5,5.2,2.7,0.4c1.3-5.4,3.4-6.3,7.4-3c3.5,2.9,5.4,2.8,2.6-0.2
	c-2.3-2.5-2.1-8.3,0.3-11.5c2.6-3.4,2.5-4.7-0.7-7.3c-1.5-1.2-2.4-2.6-1.9-3.3c1-1.7,7.1-1.4,8.6,0.3c1.6,2,5.6,1.9,6.4-0.1
	c0.9-2.4,0.8-2.5-1.9-1.8c-1.7,0.4-3.2,0.1-4.5-1.2c-1.1-1-4.1-2.5-6.7-3.4c-6.6-2.3-6.8-5.2-1.2-12.5c6.4-8.3,11.9-8.6,13.6-0.7
	c0.8,4,1,5.2,1.2,12.1c0.2,4.3,0.2,4.4,2.2,2.6c1.1-1,2-2.6,2-3.7c0-2.1,1.1-2.4,2.7-0.7c1.8,1.8,3.3,0.1,2.6-3.2
	c-0.5-2.3-0.2-3,1-3c0.9,0,2.2,0.9,2.9,2c1.6,2.6,3.3,2.5,5.2-0.2c2.8-3.9,2-8.7-2.1-12.9c-2-2-3.3-4.2-2.9-4.8c1-1.7,4-1.3,6.8,0.9
	c1.4,1.1,4,2,5.9,2c1.8,0,4.2,0.7,5.3,1.5c1.9,1.4,1.9,1.6,0.2,6.2c-0.9,2.6-1.7,5.5-1.7,6.5c0,3.1,2.9,1.9,4.9-2.1
	c1.9-3.8,7.3-9.1,9.2-9.1c2.3,0,9.2,5.4,10.2,8c0.9,2.3,1.6,2.8,4.1,2.7c2.2-0.1,3.1,0.4,3.4,1.6c0.5,2.3-2.5,3.4-5,1.8
	c-1.6-1-2.3-0.9-3.9,0.5c-1,0.9-1.9,2.4-1.9,3.3c0.1,3,4.4,7,8.5,7.9c3.4,0.7,4,1.2,3.7,3.2c-0.1,1.3-1.8,4.3-3.8,6.6
	c-3.9,4.7-4.5,7.4-1.6,7.4c1,0,2.5,0.7,3.2,1.6c1.1,1.4,1,1.8-0.6,3c-2.6,1.9-4.9,1.3-5.3-1.3c-0.2-1.7-1.2-2.3-4.9-2.8
	c-2.5-0.4-6.4-1.9-8.6-3.4c-3.3-2.2-5.1-2.6-9.4-2.5c-5.1,0.2-8.2,1.5-8.2,3.4c0,0.5,2.7,0.6,5.9,0.2c5.1-0.5,6.3-0.3,9,1.6
	c4.4,3.1,4.3,7.4-0.2,10.1c-4.2,2.5-8,2.5-10.2,0c-2.1-2.3-6.7-2.6-8.5-0.5c-1.4,1.7-0.6,3.5,1.5,3.5c0.8,0,2.1,0.7,3,1.6
	c2.2,2.2,0.3,4.4-3.6,4.4c-1.7,0-2.7,0.4-2.3,1c0.3,0.5,2.2,1,4.1,1c5.9,0,5.9,6.1,0,6.8c-1.5,0.2-4.5,2.1-6.7,4.3
	c-2.4,2.4-5,4.1-6.7,4.2c-2.6,0.2-2.7,0-2.8-5.3c-0.1-5.1,0.2-5.7,3.5-8.7c4.3-3.9,1.9-4.7-2.6-0.9c-2.2,1.8-3.3,2.2-4.6,1.4
	c-1.9-1-2.4-0.3-2.9,4.1c-0.2,1.9-1,2.6-3,2.8c-3.2,0.4-3.2,0.2-1.3,3.8c0.8,1.6,1.5,3.4,1.5,4c0,1.5-3.1,4.1-5.5,4.6
	c-2.1,0.4-2.4,3-1,7.6c0.6,2,0.1,2.5-4.1,4.3c-2.7,1.1-5.8,2.9-6.9,3.9C1704.4,1301.6,1696.3,1302.4,1695.4,1300.8z M2691.2,1300.2
	c-0.4-1,0.8-3,3.6-5.8l4.2-4.2l1.9,2.4c3,3.6,2.5,5.9-1.7,7.6C2694.6,1302.3,2692,1302.2,2691.2,1300.2z M2705.3,1296.4
	c-0.7-1.8,0.3-3.5,2.1-3.5c1.6,0,3.7,3.4,2.8,4.4C2709,1298.4,2705.8,1297.8,2705.3,1296.4z M2711.3,1291.8c-1-1.7,0.4-5.9,2-5.9
	s3.1,4.3,2,5.9c-0.4,0.6-1.3,1.1-2,1.1C2712.6,1292.8,2711.7,1292.3,2711.3,1291.8z M137.6,1280.2c-1-1-0.9-7.2,0.2-7.8
	c0.5-0.3,2.1-0.1,3.6,0.4c2.2,0.8,2.6,1.5,2.3,4.3c-0.3,2.6-0.8,3.3-2.9,3.5C139.5,1280.8,138,1280.6,137.6,1280.2z M2693.8,1274.9
	c-6.2-6.2-3.9-8.5,7.6-7.9c4.7,0.2,6,0.7,6.3,2.1c0.2,1.2-0.7,2.2-3.2,3.3c-2.3,1-3.6,2.2-3.6,3.4
	C2700.9,1279.3,2697.8,1279,2693.8,1274.9z M2657.5,1275.9c-0.9-1-1.8-3.2-1.9-4.8c-0.2-2.8-0.1-2.9,5-3.1c5.9-0.2,7.6,1.1,4.5,3.6
	c-1.1,0.9-2.5,2.6-3.2,3.9C2660.6,1278.3,2659.7,1278.4,2657.5,1275.9z M2676.1,1268.5c-2.8-3-3-8.7-0.3-8.7c2.9,0,5.2,3.3,5.2,7.3
	C2680.9,1271.5,2679.3,1271.9,2676.1,1268.5z M2705.3,1262.4c-2.6-2.6-3.1-5-1.3-6.1c1.6-1,7.3,5,6.6,7
	C2709.7,1265.5,2708.2,1265.2,2705.3,1262.4z M2660.1,1254.6c-0.7-0.7-1.2-2.8-1.2-4.8c0-2.7-0.7-4.2-3-6.2c-3-2.6-4.1-7-2-8.3
	c1.6-1,1.2-2.2-1.1-2.8c-1.7-0.5-2-1.2-1.8-4.9c0.3-4.3,0.3-4.3,4.1-4.2c4.1,0.1,4.3-0.2,2.8-4.1c-0.7-1.8-0.7-3.3,0-4.5
	c1.4-2.7-0.6-3.6-3.1-1.4c-1.9,1.7-2.1,1.7-5.6-0.1c-4.2-2.3-5.1-4-3.4-6.7c0.7-1.1,1.1-2.1,0.9-2.2c-1.2-1.1-7-3.5-8.2-3.5
	c-1.6,0-4.6-4.8-4.6-7.3c0-0.8,0.7-2,1.6-2.7c1.1-0.9,1.4-2.3,0.9-5c-0.6-3.4-0.4-3.8,1.9-4.3c1.4-0.4,3.3-1.8,4.2-3.1
	c1.2-1.8,2.5-2.5,4.9-2.5c4.2,0,6.5,2.7,6.5,7.3c0,3.8,1.9,5.7,5.9,5.7c1.1,0,2.5,0.9,3.1,2c0.6,1.1,1.6,2,2.3,2
	c1.8,0,6.9,6.8,6.5,8.8c-0.2,1-1.4,1.8-3.1,2c-2.3,0.3-2.7,0.8-2.7,3.1c0,1.5-0.7,3.4-1.5,4.1c-2.2,1.8-1.8,2.8,1.2,3.2
	c2.3,0.3,2.8,0.8,3.1,3.8c0.2,2,1.4,4.6,2.9,6.2c2.5,2.7,2.4,4.8-0.2,4.8c-1.9,0-1.8,0.9,0.3,3.2c1.4,1.5,1.5,2.2,0.5,3.8
	c-0.7,1.1-1.2,3.7-1.2,5.9c0,6.3-2.4,6.3-6,0.1c-0.6-1.1-1.2-1.2-2-0.4c-0.8,0.8-0.5,1.8,0.9,3.7c2.6,3.3,2.7,8.3,0.1,9.7
	C2661.5,1256.1,2661.5,1256.1,2660.1,1254.6z M2663.9,1235.4c0-1.6-1.4-2.8-2.3-1.9c-0.8,0.8,0.3,3.4,1.4,3.4
	C2663.5,1236.8,2663.9,1236.2,2663.9,1235.4z M2749.5,1247.1c-0.4-0.4-0.6-1.6-0.6-2.8s-0.9-3.4-2.1-4.8c-1.1-1.4-2.3-4.2-2.6-6.1
	s-0.8-3.5-1.1-3.5s-2.6,0.8-5.3,1.7c-4.5,1.6-4.9,1.6-7.4,0c-2.3-1.5-2.6-2.3-2.6-7.7c0-5.5,0.3-6.3,3.2-9c2.6-2.4,3.9-2.9,6.5-2.5
	c3.6,0.6,3.4,1.1,3.7-10.4c0.1-4.1,0.3-4.5,2.6-4.7c1.4-0.1,5.7,1.5,9.5,3.5l7,3.7v7c0,6.4-0.2,7-2.2,7.3c-1.4,0.2-2.6-0.4-3.3-1.8
	c-0.7-1.3-2.1-2.1-3.7-2.1c-3.5,0-2.6,2,2,4.5c3.5,1.9,3.7,2.2,3.1,5.8c-0.5,2.8-0.1,4.6,1.5,7.3c2.9,4.9,2.7,6-1.9,8.9
	c-2.2,1.4-4,3.2-4,4C2751.9,1246.9,2750.5,1248.1,2749.5,1247.1z M2627.2,1244c-1.8-1.5-4.2-4.9-5.3-7.5c-1.7-3.8-2.6-4.7-4.6-4.7
	c-1.5,0-2.7-0.7-3-1.8c-0.3-1-1-2.5-1.5-3.5c-0.5-1-0.9-3.5-0.9-5.8c0-3.9-0.1-4-3.2-3.8c-3.6,0.3-3.7,0-2.2-10
	c0.7-5-0.4-5.5-2.8-1.2c-0.9,1.6-2.4,3-3.2,3c-2.1,0-2-4.8,0.1-7.2c2.1-2.4,0.7-3.8-3-3.1c-1.8,0.3-3.2,1.5-3.8,3
	c-0.7,1.9-1.5,2.4-3.7,2.1c-2.5-0.3-2.8-0.8-3.4-5.4c-0.3-2.8-1.2-6-2-7.2c-1.2-1.9-1.1-2.4,0.5-4.2c1.9-2.1,1.8-2.1-1.4-4.9
	c-3.6-3-3.5-2.1-1.4-15.4c0.7-4.3-0.5-4.8-5.3-2.3c-1.6,0.8-3.6,1.7-4.6,2c-2.1,0.6-2.3,3.9-0.2,5.6c1.8,1.5,2.1,11,0.5,14.1
	c-1.3,2.4-6.7,5.3-8.6,4.5c-1.8-0.7-1.8-5.7,0.1-8.2c2.2-2.9,1.8-5.4-0.8-6.4c-2.7-1-6.6-7.2-6.6-10.4c0-1.2,0.6-3.1,1.4-4.2
	c1.2-1.7,1.7-1.8,3.5-0.7c3.3,2,4.8,1.5,5.9-2c2.2-6.9,2.4-10.5,0.6-13.1c-2.6-4-1.7-7.1,2.3-7.5c4.2-0.4,6.4,1.3,5.6,4.4
	c-0.7,2.7-0.2,2.9,2.7,1.1c1.7-1.1,2.2-1,3.1,0.6c0.8,1.4,1.3,1.6,2.4,0.6c1.3-1.1,4.7-0.9,9.4,0.5c0.8,0.2,1.8,0.5,2.2,0.5
	c0.4,0,0.8,2.1,0.8,4.6c0,4.2,0.2,4.7,3.4,6c2.5,1,3.5,2.2,4,4.4c0.3,1.6,3.1,5.9,6.1,9.5c3,3.6,5.5,7.4,5.5,8.5
	c0,1.8,2.5,9.1,5,14.6c0.5,1.1,1.4,3.6,2,5.6c0.6,2,2.2,4.7,3.6,6c2.1,2,2.5,3.2,2.3,7.5c-0.1,3.1,0.4,6.4,1.5,8.4
	c0.9,1.8,1.7,4.4,1.7,5.8s0.9,3.7,2,5.2c1.3,1.8,2.1,4.7,2.2,8.7l0.3,5.9l-3,0.2C2631.3,1246.7,2629.4,1245.9,2627.2,1244z
	 M2716.6,1237.2c-1.1-1.1,0.2-2.4,2.4-2.4c1.2,0,1.8,0.5,1.6,1.2C2720.2,1237.5,2717.6,1238.2,2716.6,1237.2z M2720.4,1230.8
	c-0.4-0.6-0.3-1.6,0.3-2.2c0.7-0.7,1.2-0.6,1.7,0.2c0.4,0.6,0.3,1.6-0.3,2.2C2721.4,1231.7,2720.9,1231.6,2720.4,1230.8z
	 M2714.1,1224.6c-1.6-1.6-1.5-3.8,0.2-3.8c1.8,0,4,2.7,3.1,4C2716.6,1226.1,2715.6,1226.1,2714.1,1224.6z M25,1214.2
	c-4.3-4.9-4.4-5.3-3.4-10.3c0.9-4.3,2.6-4.7,6.6-1.7c2.7,2.1,4.7,2.6,10.3,2.8c6.2,0.3,7,0.5,7.3,2.4c0.2,1.1-0.6,2.9-1.8,3.9
	c-1.1,1-2,2.4-2,3c0,2.5-3.7,4.5-8.2,4.5C29.4,1218.8,28.7,1218.4,25,1214.2z M2711.6,1216.8c-4.7-2.5-4.9-5.4-0.7-11.5
	c3.2-4.6,3.5-4.8,8.5-4.4c5.5,0.4,6.8,1.7,6.2,6.4c-0.3,2.3-1.3,5.8-2.1,7.9c-1.4,3.3-2,3.7-4.8,3.7
	C2716.8,1218.8,2713.7,1217.8,2711.6,1216.8z M2677,1212.2c-1.3-1.6-2.1-4.1-2.1-6.5c0-4.5-1.9-9.7-4.4-11.7c-1.2-1-1.5-2.2-1.1-4.3
	c0.7-3.2-0.8-5.8-3.5-5.8c-2.4,0-5.2-3.4-4.5-5.3c0.4-1.1-0.8-2.3-4.6-4.1c-2.8-1.4-5.7-2.6-6.4-2.6c-0.7,0-2.1-0.9-3-2
	c-1.7-1.8-1.7-2.2-0.2-5.4c1.6-3.3,1.8-3.4,9.1-4.1c4.1-0.4,9.7-0.4,12.5,0c4.1,0.5,5.9,0.2,9.8-1.6c5.8-2.8,9.9-2.9,13.5-0.5
	c3.3,2.2,8.5,9.6,9.3,13.4c0.3,1.5,1.3,4.6,2.1,6.8c1.6,4.5,1.5,11.6-0.3,12.1c-0.6,0.2-4.1-2.6-7.8-6.2c-6.7-6.7-8.3-6.7-4.4,0.2
	c3.1,5.4,7.9,10.3,10.2,10.3c1.8,0,1.9,0.5,1.3,5.6c-0.4,3.1-0.9,6.1-1.2,6.6c-0.3,0.5-2.7,0.7-5.4,0.3c-4.6-0.6-5-0.5-9.3,3.4
	C2681.4,1215.5,2679.8,1215.8,2677,1212.2z M954.8,1206.2c-3.1-3.7-5.1-7.5-4.5-8.9c1.3-3.4,15.8,0.5,16.4,4.4
	C967.3,1205.8,957.6,1209.5,954.8,1206.2z M1731.3,1202.4c-3.1-2.2-5-7.2-3.4-9.1c1.8-2.2,3.8-1.9,7.7,1.1c2.8,2.1,3.3,3.2,3.1,5.8
	c-0.2,2.5-0.8,3.2-2.8,3.4C1734.5,1203.8,1732.4,1203.2,1731.3,1202.4z M2730.4,1202.8c-1-1.6,0.4-3,3.1-3c2.7,0,3.1,0.9,1.2,2.8
	C2733.2,1204.1,2731.2,1204.2,2730.4,1202.8z M67.6,1202.2c-0.4-0.4-0.7-1.7-0.7-3c0-1.6,0.6-2.3,1.9-2.3c2.4,0,4.5,2.5,3.8,4.5
	C71.9,1202.8,68.8,1203.4,67.6,1202.2z M1777.6,1199.2c-1-1-0.8-5.1,0.2-5.8c1.3-0.8,4.4,3.2,3.8,4.9
	C1780.9,1199.9,1778.7,1200.3,1777.6,1199.2z M1761.2,1197.2c-0.9-2.3,2.5-4.7,4.4-3.2c1.1,0.9,1.1,1.4-0.3,3
	C1763.2,1199.3,1762,1199.3,1761.2,1197.2z M2711.1,1196.7c-0.7-0.7-1.2-2-1.2-2.9c0-1.8,3-5,4.7-5c1.4,0,6.5,6.8,5.5,7.3
	C2718,1197.5,2712.3,1197.8,2711.1,1196.7z M2725.9,1195.3c0-0.8,0.7-1.5,1.5-1.5s1.5,0.7,1.5,1.5c0,0.8-0.7,1.5-1.5,1.5
	S2725.9,1196.1,2725.9,1195.3z M60.6,1193.2c-1-1-0.8-5.1,0.2-5.8c1.3-0.8,3.3,2,2.9,4C63.4,1193.3,61.7,1194.3,60.6,1193.2z
	 M1748.8,1191.6c-1.9-1.2-4-2.9-4.8-4c-1.4-2-4.7-2.5-5.7-0.9c-0.3,0.5-1.5,1-2.6,1c-2.7,0-2.5-3.3,0.5-6.7l2.4-2.8l3.1,1.8
	c3.4,2,4,1.4,1.4-1.5c-3.8-4.2,1.5-6.3,10.2-4.2l3,0.7l-3.9-4.1c-4.8-5-4.4-7.2,1.3-7.2c3.4,0,3.9-0.3,3.4-2c-0.4-1.6,0-2,2.1-2
	c2.4,0,3.1-1,2.7-3.4c-0.1-0.5,1.1-2.2,2.6-3.8c2.5-2.6,3.2-2.9,7-2.3c4.4,0.7,5.4-0.3,2.8-2.5c-2.1-1.7-1.9-3.6,0.6-5.4
	c1.2-0.8,2.6-2.5,3.3-3.8c1.4-2.8,6.3-3.8,7.2-1.4c0.7,1.8-3.8,9.9-6.5,11.8c-1.7,1.2-1.8,1.8-0.8,6.3c0.6,2.7,1.2,5.1,1.4,5.4
	c0.2,0.2,1.2-0.8,2.4-2.2c2.9-3.7,5.1-3.5,4.3,0.3c-0.7,3.4,0.9,4,4.2,1.5c2.9-2.2,3.4-1.9,3.4,2.5c0,4.5,1.3,5.1,4.6,1.9
	c4.4-4.1,5.8,0.3,2.4,7.1c-1.8,3.5-2.4,4-5.7,4c-2,0-4.5-0.7-5.4-1.6c-2.5-2.3-4.5-1.1-5.3,3.1c-0.8,4.4-2.9,5.4-6.7,3.1
	c-2.2-1.3-3.3-1.4-4.9-0.6c-1.1,0.6-2,1.7-2,2.4c0,1.8-7.6,8.6-9.6,8.6c-0.9,0-2.9-0.9-4.6-2.1c-3.3-2.3-4.9-1.8-3.1,1.1
	C1755.7,1193,1752.9,1194.1,1748.8,1191.6z M2719.9,1188.3c-1.4-0.8-3.7-1.4-5.1-1.5c-5.9-0.1-7.9-5.2-2.9-7.7
	c3-1.5,11.6-1.7,12.5-0.3c0.4,0.6,1.3,0.5,2.6-0.2c2.3-1.4,5.2-0.1,5.8,2.6c0.4,1.8-2.3,2.3-3.3,0.6c-0.3-0.6-1.3-1-2.1-1
	c-1,0-1.4,1.2-1.4,4.5C2725.9,1190.3,2724.6,1191,2719.9,1188.3z M29,1170.3c-3.9-4.2-4.4-4.5-8-3.9c-3.5,0.6-4.2,0.3-8-3.4
	c-2.3-2.2-4.1-4.9-4.1-6c0-4.8-1.5-8.6-5.2-12.7c-5.7-6.5-5-8,3.7-7.9c5.7,0.1,7.9,0.6,11.8,2.9c2.7,1.5,5.2,3.8,5.7,5.1
	c0.7,1.9,1.6,2.4,4.7,2.4c2.5,0,4.8,0.8,6.8,2.4c2.6,2.1,2.8,2.7,1.7,4.2c-4.4,6.4-4.1,9.3,1.2,9.3c6.6,0,10.5,9.5,4.6,11.1
	c-1.4,0.4-4.4,0.7-6.6,0.8C33.6,1174.8,32.7,1174.3,29,1170.3z M2618.4,1168.6c-1.9-3.6-2.9-7.3-3.3-11.9c-0.5-6-0.3-6.8,1.6-7.8
	c2.6-1.4,2.8-3.1,0.2-3.1c-2.5,0-4.8-2.7-3.4-4.1c0.7-0.7,2.1-0.7,4.6,0.2c4,1.4,5.6,0.8,3.6-1.6c-0.7-0.9-2.9-1.5-4.9-1.5
	c-2.9,0-4.4-0.7-6.7-3.2c-5-5.4-10.4-13.6-10.4-16c-0.1-4.1-2.8-13.9-4.4-15.7c-0.9-1-1.6-2.9-1.6-4.4c0-1.5-0.7-3-1.5-3.3
	c-2.6-1-4.9-6.6-5.4-13.3c-0.5-6.4-0.6-6.5-3.7-6.8c-4-0.4-4.9-1.5-5.8-7.4c-0.6-4.2-0.5-4.8,1.2-4.8c1,0,4.1,2.2,6.9,4.9l5,4.9
	l7.8,0.2c6.3,0.2,7.9-0.1,8.7-1.4c1.6-2.9,3.7-1.8,11.1,5.7c4,4,7.8,7.5,8.4,7.8c1.6,0.6,8.3,8.9,8.3,10.4c0,0.7,1.4,3,3,5
	c2.5,3.1,4.1,8.5,2.6,8.5c-2.2,0-11-5.9-11.7-7.8c-0.5-1.3-2.9-4.7-5.4-7.4c-2.5-2.7-4.5-5.5-4.5-6.2c0-1.5-3.2-4.5-4.8-4.5
	c-1.3,0-1.6,4.9-0.6,9.6c0.4,2.1,2,3.8,6,6.2c3,1.9,6.4,4.9,7.5,6.8s2.5,3.4,3,3.4c2.6,0,13,12.4,13,15.6c0,0.4-2.2,0.4-5,0.1
	c-3.6-0.4-5-0.2-5,0.6c0.1,1.8,6.7,5.7,9.6,5.7c3.2,0,3.9,2.1,2,5.8c-2.1,4.1-3.1,4.5-6,2.6c-4.4-2.9-5-0.5-0.9,3.7
	c3.3,3.4,3.6,4.2,2.6,5.6c-0.7,0.9-1.5,2.5-1.9,3.5c-0.4,1.3-1.2,1.7-2.9,1.3c-1.6-0.4-2.4-0.1-2.8,1.2c-2.3,7.4-8.6,18.2-10.6,18.2
	C2621.5,1173.8,2619.9,1171.5,2618.4,1168.6z M2551.4,1154.8c-4-3-5.2-5.4-2.8-5.4c1.4,0,1.4-0.9,0.2-4.2c-0.7-1.8-1.6-2.2-4.8-2.2
	c-2.2,0-4.4-0.6-5.1-1.5c-0.7-0.8-2.2-1.5-3.4-1.5c-3.1,0-4.6-1.9-4.6-5.7c0-2.3-0.6-3.5-1.8-4c-1-0.4-3.7-2.2-6-4.1
	c-5-4.1-5.5-7.1-1.8-12.1c2.4-3.2,2.5-6.1,0.2-6.1c-0.6,0-2.8-1.1-4.9-2.5c-4.3-3-4.9-6-1.3-7.6c1.8-0.8,2.4-1.8,2.2-3.7
	c-0.1-2.2,0.2-2.6,2.4-2.5c1.7,0.1,2.8-0.5,3.5-2c0.5-1.2,1.8-2.3,2.9-2.5s4.4-2.2,7.4-4.4c4.6-3.4,5.8-3.8,7.3-2.9
	c1,0.6,2.8,1.1,3.9,1.1s3.4,0.7,5,1.5c2.7,1.4,3,2,3,6.5c0,4.5-0.3,5.2-3,6.7c-2.5,1.4-2.9,2.2-2.4,4.2c0.3,1.4,1.2,3.2,2,4.1
	c1.8,2,0.9,2.9-2.7,2.9c-2.4,0-2.8,0.4-2.8,2.5c0,3.1,2.3,4.2,5.4,2.5c1.9-1,2.9-0.9,5.4,0.4c1.7,0.9,4.9,1.6,7.1,1.6
	c3.4,0,4.2,0.4,5.3,2.8c1.1,2.3,2,2.8,6.1,3.1c3.6,0.2,5.5-0.2,7.7-1.8c2.3-1.7,3.6-1.9,6.7-1.3c2.6,0.5,4,1.4,4.2,2.7
	c0.2,1,2.1,4.1,4.3,6.9c5.1,6.4,5,9.9-0.3,12.9l-3.6,2.1l-3-2.1c-1.8-1.3-4.5-2.1-6.7-2.1c-3.5,0-8-1.9-11.8-4.9
	c-1-0.8-3.8-1.4-6.5-1.3c-2.6,0-5.6-0.6-6.7-1.3c-2.2-1.5-5.6-1.9-5.6-0.6c0,1.1,5,5.7,7.8,7.1c1.4,0.7,2.2,2.1,2.2,3.6
	c0,1.4,0.8,2.9,2,3.5c2.3,1.3,2.6,4.2,0.6,6c-0.8,0.7-1.6,2.9-1.8,4.9c-0.3,3.4-0.6,3.7-3.8,3.9
	C2556.3,1157.8,2554.4,1157,2551.4,1154.8z M2526.9,1097.5c0-0.7-0.9-2.2-2-3.2c-1.9-1.8-2-1.7-2,0.7c0,1.4,0.3,2.8,0.7,3.2
	C2524.7,1099.3,2526.9,1098.9,2526.9,1097.5z M2601.1,1149.7c-1.5-1.5-1.6-4.8-0.2-4.8c2.2,0,7.1,3.2,6.7,4.3
	C2607.1,1150.8,2602.6,1151.2,2601.1,1149.7z M936.5,1145.7c-3.1-4.7-2.4-6.5,3-7.5c5-0.9,12.4,0.4,12.4,2.2c0,3.9-6.6,9.4-11.3,9.4
	C939.8,1149.8,937.9,1148,936.5,1145.7z M1769,1139.3c0.4-2.1,3.4-4.2,4.5-3.1c1.1,1.1-1,4.1-3.1,4.5
	C1769.2,1140.9,1768.8,1140.5,1769,1139.3z M2567.1,1112.8c-3.5-2-6-2.8-7.3-2.4c-5.4,1.7-7.7-7.1-3.8-14.3
	c4.2-7.6,5.4-8.3,14.4-8.3c7.9,0,8.2,0.1,11.3,3.3c2.5,2.6,3.2,4.2,3.2,7.3c0,4.5-1.4,6.4-4.7,6.4c-3.4,0-2.8,1.8,0.9,2.8
	c4.9,1.3,4.7,3.9-0.4,6.2C2574.9,1116.4,2573.3,1116.3,2567.1,1112.8z M1390.1,1114.1c-2.8-0.3-3.2-0.8-3.2-3.1
	c0-1.5,0.8-4.9,1.8-7.5c1.6-4.5,2.1-5,7.7-7.4c7.8-3.3,9.9-3.4,10.3-0.6c0.2,1.6-0.5,2.6-2.8,3.8c-2.5,1.3-3.1,2.2-3.1,5
	c0,4.2-3.6,10.6-5.8,10.4C1394.1,1114.6,1391.9,1114.3,1390.1,1114.1z M1423.1,1109.9c-0.9-2.5-1.6-3-3.9-2.8
	c-2.6,0.2-2.8,0-2.5-3.3c0.2-1.9,0.5-3.8,0.8-4.2c1.1-1.8,4.4-0.5,7.3,2.8c2.4,2.7,3.1,4.4,2.9,6.7
	C1427.3,1113.4,1424.5,1113.9,1423.1,1109.9z M1784.3,1110.8c-0.9-1.4,2.4-4.9,4.6-4.9c2.9,0,3.4,2.2,1,4.2
	C1787.4,1112.1,1785.3,1112.3,1784.3,1110.8z M1798.4,1107.8c-0.7-1.2,1.2-5,2.6-5c1.6,0,2.2,2.9,0.9,4.5
	C1800.4,1109.1,1799.3,1109.2,1798.4,1107.8z M1855.5,1079.2c-1.1-3-0.6-5.1,1.8-7.3c2.9-2.7,4.6-2,4.6,1.8
	C1861.9,1078.8,1857,1083.1,1855.5,1079.2z M1730.1,1072.6c-2.1-2.1-1.4-6.4,1.3-8.2c3.3-2.1,5.2-2,6.5,0.3c1.6,3.1,1.2,5.8-1.2,7.5
	C1734,1074.1,1731.7,1074.3,1730.1,1072.6z M2591.9,1068.3c-2.1-2.5-0.4-4.5,3.7-4.5c3.8,0,10.3,3.1,10.3,5
	C2605.9,1070.5,2593.3,1070.1,2591.9,1068.3z M1979.1,1027.9c-2.8-3.8-2.8-4.7,0.3-6.7c1.8-1.1,2.5-2.5,2.5-4.7
	c0-2.2,0.9-3.8,3.6-6.1c5.2-4.5,6-5.4,10.8-12.6c6.4-9.7,8.6-14.5,8.6-19c0-2.9,0.5-4.3,1.7-4.7c2.4-0.9,6.8,1.9,7.2,4.5
	c0.2,1.2,1,2.2,1.8,2.2c4.8,0,1.4,7.1-7,14.3c-5.2,4.5-5.5,5-5.8,10c-0.3,4.6-0.6,5.4-3.1,6.5c-2.8,1.3-3.6,3.6-1.8,4.7
	c2,1.2,1,4.5-1.7,5.6c-1.5,0.6-4.4,2.6-6.5,4.5s-4.2,3.5-4.7,3.5c-0.5,0-1.5,0.2-2.3,0.5C1981.9,1030.6,1980.3,1029.6,1979.1,1027.9
	z M2127.3,1011.4c-1.2-3.2,4.8-12.6,8.1-12.6c2.4,0,1.9,2.7-1.4,7.4C2129.9,1012.1,2128.1,1013.5,2127.3,1011.4z M2029.3,979.4
	c0.5-2.9,0.3-3.5-1.5-3.9c-1.9-0.5-2.1-1-1.5-4.8c1.4-8.6,4.7-11.9,8.6-8.3c1,0.9,2.3,1.4,2.9,1c0.6-0.4,2.3,0.2,3.9,1.3
	c1.5,1.1,4.8,2.1,7.2,2.3c4,0.3,4.5,0.6,4.7,3c0.4,3.2-1.3,4.3-7.6,5.1c-3,0.4-5.4,1.6-8.3,4.1c-2.4,2.2-5,3.6-6.6,3.6
	C2028.8,982.8,2028.7,982.6,2029.3,979.4z M1173.1,959.4c-3.1-3.8-6-6.5-7.1-6.5c-1.1,0-4.6-3-8.1-7c-3.8-4.2-7-7-8.2-7
	c-1.1,0-4.4-2.4-7.3-5.2c-5.1-5-5.3-5.5-5.7-11.2l-0.3-6l4.9-0.3c3.1-0.2,5.5,0.2,6.5,1.1c0.9,0.8,3.7,2,6.1,2.7
	c2.5,0.8,5.7,2.2,7.2,3.2c3.5,2.4,7.3,2.3,11.5-0.3c1.9-1.2,7.8-3,13.1-4.1l9.7-2l4,4.5c2.2,2.5,5.1,4.8,6.5,5.2
	c6.1,1.8,7.8,6.5,3.6,10.4c-3.1,2.9-4,7.7-2.5,13.6c1,4,0.9,4.8-0.6,6.6c-2,2.2-4.5,2.5-6.2,0.9c-1.1-1.1-5.4-0.2-10.9,2.3
	c-1.2,0.5-3.4,0.7-5,0.3c-2.7-0.6-2.9-0.4-2.9,2.1C1181.4,967.4,1178.6,966.3,1173.1,959.4z M1991.4,953.9c-1.4-1.5-1.5-2.5-0.8-4.7
	c0.8-2.5,1.4-2.8,5.4-2.8c5.6,0,5.8,1.9,0.8,6.3C1993.2,955.7,1993.1,955.7,1991.4,953.9z M1971.3,950.4c-1-2.6,0.1-5.1,2.4-5.4
	c2.4-0.3,4.5,3,3.5,5.6C1976.5,952.3,1971.9,952.1,1971.3,950.4z M2002.5,930.7c-1.4-2-1.4-2.5-0.2-3.7c1.2-1.2,1.8-1.1,4.5,0.8
	c3.6,2.6,3.5,4.4-0.2,4.8C2004.9,932.8,2003.6,932.2,2002.5,930.7z M918.5,847.9c-5.8-4.5-12.4-14.5-14.3-21.5
	c-1.8-6.9-1.8-7.2,1.6-8.5c4.6-1.9,5.3-0.8,4.9,8.3l-0.3,8.1l3,1.5c4,2,15.7,13.8,15,15C927.2,852.8,923.3,851.6,918.5,847.9z
	 M1101.4,655.1c-3.8-7.8-11-18.9-15.5-23.8c-2.1-2.2-4.3-5.7-4.9-7.7s-3-6-5.2-8.7l-4-5l-16.7,0.6c-15.8,0.6-16.8,0.5-19.2-1.4
	c-2.3-1.9-2.5-2.7-2.5-10.9c0-8.2,0.2-9.1,3.2-13.3c7-10.1,12.3-12.6,12.3-5.8c0,5.1,3.1,9.1,9.3,12.1c3,1.5,6.3,3.9,7.2,5.3
	c1.6,2.5,2,2.6,7.8,2c3.9-0.4,7.4-1.5,9.6-3c4.1-2.7,15.6-5.4,17.1-4c0.5,0.5,1.8,6,2.8,12.1c1,6.2,2.4,11.9,3.1,12.7
	c0.7,0.8,4.2,3.5,7.9,6s9.3,6.5,12.6,9c6.7,5.1,9.7,6.6,18.8,9.6c4.6,1.5,4.7,3,0.8,9.2c-2.9,4.6-3.1,4.7-7.9,4.7
	c-3.1,0-5.3-0.5-6.1-1.5c-0.9-1.1-3.3-1.5-9.1-1.5h-7.8l-3.7,4.5c-2,2.5-4.5,4.5-5.4,4.5C1104.7,660.8,1103.2,658.9,1101.4,655.1z
	 M1235.6,442.2c-1.3-1.3-0.6-3.5,2-5.9c5.4-5,9.8-1.6,4.8,3.6C1239.6,442.7,1237,443.6,1235.6,442.2z M1390.9,409.8
	c0-1.1,1.2-2.7,2.6-3.7c2.3-1.5,2.7-1.5,4.1-0.1c1.4,1.4,1.3,1.7-0.7,3.7C1393.9,412.4,1390.9,412.5,1390.9,409.8z M2042.4,107.8
	c-0.9-1.4,1.4-4,3.6-4c2.8,0,3.2,1.7,0.7,3.4C2044,109.1,2043.2,109.2,2042.4,107.8z M1965.3,104.4c-1.8-1.3-1.8-1.5-0.3-2.1
	c2.9-1.1,7.3-0.1,7.6,1.8C1973.1,106.3,1968.2,106.5,1965.3,104.4z M1953.1,101.9c-1.2-1-2.2-2.4-2.2-3c0-2,4.8-1.2,6.4,1.1
	C1960,103.9,1957.1,105.2,1953.1,101.9z M1934.1,99.1c0.2-1.3,1.2-1.8,3.3-1.8c4.3,0,4,2.9-0.4,3.3
	C1934.3,100.9,1933.8,100.7,1934.1,99.1z M1893.9,87.3c-1.5-1.7-0.7-4.5,1.3-4.5c1.7,0,5.9,4.4,5,5.3
	C1899,89.4,1895.2,88.9,1893.9,87.3z M1912.6,88.2c-1.4-1.4-0.7-3.5,1.1-3.2c1,0.2,1.8,1,1.8,1.7
	C1915.4,88.3,1913.6,89.2,1912.6,88.2z M1513.6,83.2c-2.8-1.5-3.7-3.4-1.7-3.4c1.8,0,7.9,3.2,7.9,4.1
	C1519.9,85.3,1516.7,84.9,1513.6,83.2z M1866.4,81.8c-1-1.5,0.4-2.5,1.6-1.2c0.7,0.7,0.7,1.3,0.1,1.7
	C1867.5,82.6,1866.7,82.4,1866.4,81.8z M1873.6,81.2c-1.4-1.4-0.6-4.2,1.5-4.9c2.4-0.8,6.6,2.6,5.4,4.4
	C1879.7,81.9,1874.6,82.2,1873.6,81.2z M1854.1,79.1c-1.2-2.4-0.4-4.2,1.9-4.2c1.5,0,1.9,0.7,1.9,3
	C1857.9,81.2,1855.5,82,1854.1,79.1z M1701.1,24.5c-0.6-0.8-0.7-1.8-0.2-2.7c0.7-1.2,1.2-1.1,2.9,0.4c1.1,1,2.1,2.2,2.1,2.7
	C1705.9,26.3,1702.3,26,1701.1,24.5z M1694.6,19.7c-2.1-1.2-2.3-3.9-0.4-3.9c0.8,0,2,0.7,2.7,1.5C1698.6,19.4,1697,21,1694.6,19.7z
	 M1685.9,10.5c-3.1-1.6-3.4-5.1-0.4-5.5c2.5-0.4,5.9,3.1,5.1,5.3C1689.8,12.1,1689.1,12.2,1685.9,10.5z"/>
<circle cx="1459.4" cy="396" r="20.3"/>
<circle cx="1091.1" cy="618" r="20.3"/>
</svg>
