<?xml version="1.0" encoding="UTF-8"?><svg id="Layer_1" xmlns="http://www.w3.org/2000/svg" xmlns:xlink="http://www.w3.org/1999/xlink" viewBox="0 0 486.08 355"><defs><style>.cls-1,.cls-2{fill:none;}.cls-2{stroke:#d9d9d9;stroke-linecap:round;stroke-miterlimit:20;stroke-width:6.08px;}.cls-3{clip-path:url(#clippath);}.cls-4{fill:#03989e;}.cls-5{fill:#ffb1a5;}.cls-6{fill:#303030;}.cls-7{fill:#795833;}</style><clipPath id="clippath"><rect class="cls-1" x="3.27" y="7" width="480" height="275.98"/></clipPath></defs><polygon class="cls-7" points="3.27 282.98 60.88 218.08 60.88 282.98 3.27 282.98"/><polygon class="cls-7" points="425.2 218.08 425.2 282.98 483.27 282.98 425.2 218.08"/><g class="cls-3"><path class="cls-4" d="m473.3,137.1L252.83,9.62c-3.03-1.75-6.41-2.62-9.79-2.62s-6.76.87-9.78,2.62L12.78,137.1c-6.06,3.49-9.78,9.97-9.78,16.96v254.94c0,7.01,3.72,13.47,9.78,16.98l220.47,127.46c3.03,1.75,6.41,2.63,9.78,2.63s6.76-.88,9.78-2.63l220.47-127.46c6.05-3.5,9.78-9.97,9.78-16.98v-254.94c.02-6.99-3.71-13.47-9.76-16.96Zm-9.78,108.64l-79.29-137.52,79.27,45.83v91.68h.02Zm-383.45-58.43l48.25-27.89-48.25,83.69v-55.8Zm0,132.67l48.25,83.7-48.25-27.9v-55.8Zm244.46,102.91h-162.97l-81.49-141.34,81.49-141.34h162.97l81.49,141.34-81.49,141.34Zm-33.24,19.22l-48.25,27.9-48.25-27.9h96.51-.01ZM194.78,120.98l48.25-27.9,48.25,27.9h-96.51.01Zm211.23,122.14l-48.25-83.7,48.25,27.9v55.8Zm0,76.85v55.8l-48.25,27.9,48.25-83.7h0Zm-71.89-196.41l-54.88-31.73h73.17l36.58,63.46-54.88-31.73h.01Zm-182.16,0l-54.88,31.73,36.58-63.46h73.17l-54.88,31.73h.01Zm-91.08,157.99v63.45l-36.58-63.45,36.58-63.46v63.46Zm145.95,189.72h-73.17l-36.58-63.46,109.75,63.46Zm127.29-31.73l54.88-31.73-36.58,63.46h-73.17l54.88-31.73h-.01Zm91.08-221.44l36.58,63.46-36.58,63.45v-126.92h0ZM243.04,26.6l79.28,45.83h-158.56l79.27-45.83h0ZM101.85,108.23L22.57,245.75v-91.67l79.28-45.85ZM22.57,317.34l79.28,137.52-79.28-45.83v-91.68h0Zm220.47,219.14l-79.27-45.83h158.56l-79.28,45.83h-.01Zm141.19-81.64l79.27-137.52v91.67l-79.27,45.85h0Z"/></g><polygon class="cls-5" points="128.32 159.41 80.07 243.1 80.07 187.3 128.32 159.41"/><polygon class="cls-5" points="194.78 120.98 243.04 93.08 291.29 120.98 194.78 120.98"/><polygon class="cls-5" points="357.76 159.42 406.02 243.12 406.02 187.32 357.76 159.42"/><polygon class="cls-7" points="206.83 91.82 97.08 155.28 133.67 91.82 206.83 91.82"/><polygon class="cls-7" points="279.24 91.82 389 155.28 352.42 91.82 279.24 91.82"/><polygon class="cls-6" points="22.57 245.75 22.57 154.08 101.85 108.23 22.57 245.75"/><polygon class="cls-6" points="163.76 72.43 243.04 26.6 322.32 72.43 163.76 72.43"/><polygon class="cls-6" points="384.23 108.23 463.52 245.75 463.51 154.06 384.23 108.23"/><path class="cls-2" d="m3.04,292.86h480"/><path class="cls-6" d="m53.48,313.06c1.73-.51,2.94-2.12,2.94-4.11,0-2.48-1.85-4.47-4.35-4.47h-6.2v14.58h3.2v-5.64h1.29l3.59,5.64h3.6l-4.09-6h.02Zm-1.89-2.28h-2.51v-3.46h2.51c1.02,0,1.77.73,1.77,1.73s-.75,1.73-1.77,1.73h0Z"/><path class="cls-6" d="m76.5,307.29v-2.82h-8.77v14.58h8.77v-2.82h-5.56v-3.06h4.76v-2.82h-4.76v-3.06h5.56Z"/><path class="cls-6" d="m100.37,304.48l-4.65,10.09-4.59-10.09h-3.47v14.58h3.2v-8.7l3.94,8.7h1.84l3.96-8.68v8.68h3.21v-14.58h-3.45.01Z"/><path class="cls-6" d="m124.34,319.06h3.42l-5.25-14.58h-3.59l-5.25,14.58h3.43l.9-2.75h5.44s.9,2.75.9,2.75Zm-5.49-5.42l1.87-5.78,1.87,5.78h-3.74Z"/><path class="cls-6" d="m146.61,304.48h-10.54v2.84h3.69v11.74h3.19v-11.74h3.66v-2.84h0Z"/><path class="cls-6" d="m164.26,313.06c1.73-.51,2.94-2.12,2.94-4.11,0-2.48-1.85-4.47-4.35-4.47h-6.2v14.58h3.2v-5.64h1.29l3.59,5.64h3.6l-4.09-6h.02Zm-1.89-2.28h-2.51v-3.46h2.51c1.02,0,1.77.73,1.77,1.73s-.75,1.73-1.77,1.73h0Z"/><path class="cls-6" d="m178.51,319.06h3.21v-14.58h-3.21v14.58Z"/><path class="cls-6" d="m202.33,319.06h3.42l-5.25-14.58h-3.59l-5.25,14.58h3.43l.9-2.75h5.44l.9,2.75h0Zm-5.49-5.42l1.87-5.78,1.87,5.78h-3.74,0Z"/><path class="cls-6" d="m224.59,304.48h-10.54v2.84h3.69v11.74h3.19v-11.74h3.66v-2.84h0Z"/><path class="cls-6" d="m234.76,319.06h3.21v-14.58h-3.21v14.58Z"/><path class="cls-6" d="m256.61,319.25c4.15,0,7.49-3.35,7.49-7.49s-3.34-7.49-7.49-7.49-7.49,3.35-7.49,7.49,3.35,7.49,7.49,7.49Zm0-3.14c-2.46,0-4.33-1.89-4.33-4.35s1.87-4.35,4.33-4.35,4.35,1.89,4.35,4.35-1.87,4.35-4.35,4.35Z"/><path class="cls-6" d="m285.66,304.48v9.65l-7.17-9.65h-3.3v14.58h3.2v-9.67l7.15,9.67h3.31v-14.58h-3.19Z"/><path class="cls-6" d="m306.67,304.48h-6.2v14.58h3.2v-5.91h2.99c2.46,0,4.35-1.82,4.35-4.28s-1.89-4.4-4.35-4.4h.01Zm-.51,6.04h-2.48v-3.21h2.48c1.02,0,1.8.66,1.8,1.61s-.78,1.6-1.8,1.6Z"/><path class="cls-6" d="m328.88,313.06c1.73-.51,2.94-2.12,2.94-4.11,0-2.48-1.85-4.47-4.35-4.47h-6.2v14.58h3.2v-5.64h1.29l3.59,5.64h3.6l-4.09-6h.02Zm-1.89-2.28h-2.51v-3.46h2.51c1.02,0,1.77.73,1.77,1.73s-.75,1.73-1.77,1.73h0Z"/><path class="cls-6" d="m349.96,319.25c4.15,0,7.49-3.35,7.49-7.49s-3.34-7.49-7.49-7.49-7.49,3.35-7.49,7.49,3.35,7.49,7.49,7.49Zm0-3.14c-2.46,0-4.33-1.89-4.33-4.35s1.87-4.35,4.33-4.35,4.35,1.89,4.35,4.35-1.87,4.35-4.35,4.35Z"/><path class="cls-6" d="m376.94,304.48h-7.99v2.84h4.78v7.58c0,.88-.63,1.53-1.43,1.53-.73,0-1.29-.53-1.41-1.28l-3.16.92c.32,1.97,1.89,3.18,4.57,3.18,2.99,0,4.64-1.53,4.64-3.94v-10.84h0Z"/><path class="cls-6" d="m397.22,307.29v-2.82h-8.77v14.58h8.77v-2.82h-5.56v-3.06h4.76v-2.82h-4.76v-3.06h5.56Z"/><path class="cls-6" d="m415.33,319.25c2.89,0,5.39-1.63,6.63-4.01l-2.77-1.43c-.7,1.38-2.14,2.3-3.86,2.3-2.46,0-4.33-1.89-4.33-4.35s1.87-4.35,4.33-4.35c1.72,0,3.16.92,3.86,2.3l2.77-1.43c-1.24-2.38-3.74-4.01-6.63-4.01-4.13,0-7.49,3.35-7.49,7.49s3.35,7.49,7.49,7.49h0Z"/><path class="cls-6" d="m441.75,304.48h-10.54v2.84h3.69v11.74h3.19v-11.74h3.66v-2.84Z"/><path class="cls-6" d="m82.24,342.81h2l-3.06-8.51h-2.09l-3.06,8.51h2l.53-1.6h3.17l.53,1.6h-.02Zm-3.2-3.16l1.09-3.37,1.09,3.37s-2.18,0-2.18,0Z"/><path class="cls-6" d="m98.73,341.46h-.85l-1.06.47c.96-.79,1.59-2.01,1.59-3.37,0-2.41-1.94-4.37-4.37-4.37s-4.37,1.96-4.37,4.37,1.96,4.37,4.37,4.37c.34,0,.68-.04.99-.11h3.7v-1.35h0Zm-7.22-2.92c0-1.43,1.09-2.54,2.53-2.54s2.54,1.11,2.54,2.54-1.09,2.54-2.54,2.54-2.53-1.11-2.53-2.54Z"/><path class="cls-6" d="m113.63,341.46h-.85l-1.06.47c.96-.79,1.59-2.01,1.59-3.37,0-2.41-1.94-4.37-4.37-4.37s-4.37,1.96-4.37,4.37,1.96,4.37,4.37,4.37c.34,0,.68-.04.99-.11h3.7v-1.35h0Zm-7.22-2.92c0-1.43,1.09-2.54,2.53-2.54s2.54,1.11,2.54,2.54-1.09,2.54-2.54,2.54-2.53-1.11-2.53-2.54Z"/><path class="cls-6" d="m124.99,342.81h2l-3.06-8.51h-2.09l-3.06,8.51h2l.53-1.6h3.17l.53,1.6h-.02Zm-3.2-3.16l1.09-3.37,1.09,3.37s-2.18,0-2.18,0Z"/><path class="cls-6" d="m134.61,341.15v-6.85h-1.87v8.51h4.7v-1.66h-2.83Z"/><path class="cls-6" d="m146.87,342.92c2.01,0,3.54-1.23,3.54-2.84v-5.78h-1.87v5.43c0,.87-.73,1.53-1.68,1.53s-1.66-.66-1.66-1.53v-5.43h-1.87v5.78c0,1.6,1.55,2.84,3.53,2.84h0Z"/><path class="cls-6" d="m162.45,342.81h2.49l-4.09-4.72,3.67-3.78h-2.41l-2.78,3.01h-.32v-3.01h-1.87v8.51h1.87v-3.89h.27l3.18,3.89h0Z"/><path class="cls-6" d="m184.32,334.3h-6.15v1.66h2.15v6.85h1.86v-6.85h2.14v-1.66Z"/><path class="cls-6" d="m194.62,339.31c1.01-.3,1.72-1.23,1.72-2.4,0-1.44-1.08-2.61-2.54-2.61h-3.61v8.51h1.87v-3.29h.75l2.09,3.29h2.1l-2.39-3.5h0Zm-1.1-1.34h-1.46v-2.01h1.46c.59,0,1.03.42,1.03,1.01s-.44,1.01-1.03,1.01h0Z"/><path class="cls-6" d="m206.34,342.92c2.01,0,3.54-1.23,3.54-2.84v-5.78h-1.87v5.43c0,.87-.73,1.53-1.68,1.53s-1.66-.66-1.66-1.53v-5.43h-1.87v5.78c0,1.6,1.55,2.84,3.53,2.84h0Z"/><path class="cls-6" d="m219.24,342.92c1.58,0,2.93-.94,2.93-2.53,0-3.15-3.91-2.37-3.91-3.84,0-.48.37-.71.82-.71.48,0,.96.27,1.39.74l1.25-1.2c-.63-.72-1.58-1.2-2.63-1.2-1.35,0-2.72.81-2.72,2.51,0,2.89,3.93,2.2,3.93,3.68,0,.47-.4.78-1.05.78-.78,0-1.39-.44-1.7-1.11l-1.54.97c.55,1.06,1.74,1.9,3.23,1.9h0Z"/><path class="cls-6" d="m233.67,334.3h-6.15v1.66h2.15v6.85h1.86v-6.85h2.14v-1.66Z"/><path class="cls-6" d="m248.47,344.51h1.12v-10.21h-1.12v10.21Z"/><path class="cls-6" d="m270.42,334.3l-2.03,6.08-2.03-6.08h-2.08l3.06,8.51h2.09l3.06-8.51h-2.08,0Z"/><path class="cls-6" d="m278.31,342.81h1.87v-8.51h-1.87v8.51Z"/><path class="cls-6" d="m291.44,339.31c1.01-.3,1.72-1.23,1.72-2.4,0-1.44-1.08-2.61-2.54-2.61h-3.61v8.51h1.87v-3.29h.75l2.09,3.29h2.1l-2.39-3.5h.01Zm-1.1-1.34h-1.46v-2.01h1.46c.59,0,1.03.42,1.03,1.01s-.44,1.01-1.03,1.01h0Z"/><path class="cls-6" d="m303.74,338.15v1.46h2.34c-.39.89-1.27,1.49-2.32,1.49-1.43,0-2.54-1.11-2.54-2.54s1.11-2.54,2.54-2.54c1.01,0,1.83.54,2.25,1.35l1.62-.84c-.74-1.39-2.2-2.34-3.87-2.34-2.42,0-4.37,1.96-4.37,4.37s1.94,4.37,4.37,4.37,4.37-1.96,4.37-4.37v-.41h-4.39Z"/><path class="cls-6" d="m314.66,342.81h1.87v-8.51h-1.87v8.51Z"/><path class="cls-6" d="m329.47,334.3v5.63l-4.18-5.63h-1.93v8.51h1.87v-5.65l4.16,5.65h1.93v-8.51h-1.85Z"/><path class="cls-6" d="m338.17,342.81h1.87v-8.51h-1.87v8.51Z"/><path class="cls-6" d="m352.07,342.81h2l-3.06-8.51h-2.09l-3.06,8.51h2l.53-1.6h3.17l.53,1.6h-.02Zm-3.2-3.16l1.09-3.37,1.09,3.37h-2.18Z"/><path class="cls-6" d="m373.55,334.3h-6.15v1.66h2.15v6.85h1.86v-6.85h2.14v-1.66Z"/><path class="cls-6" d="m384.6,335.95v-1.65h-5.12v8.51h5.12v-1.65h-3.25v-1.78h2.78v-1.65h-2.78v-1.78h3.25Z"/><path class="cls-6" d="m395.17,342.92c1.68,0,3.15-.95,3.87-2.34l-1.61-.84c-.41.81-1.25,1.35-2.25,1.35-1.43,0-2.53-1.11-2.53-2.54s1.09-2.54,2.53-2.54c1.01,0,1.84.54,2.25,1.35l1.61-.84c-.72-1.39-2.18-2.34-3.87-2.34-2.41,0-4.37,1.96-4.37,4.37s1.96,4.37,4.37,4.37Z"/><path class="cls-6" d="m410.66,334.3v3.42h-3.46v-3.42h-1.87v8.51h1.87v-3.43h3.46v3.43h1.86v-8.51h-1.86Z"/></svg>